<svg version="1.0" xmlns="http://www.w3.org/2000/svg"
 width="1000.000000pt" height="998.000000pt" viewBox="0 0 1000.000000 998.000000"
 preserveAspectRatio="xMidYMid meet">

<g transform="translate(0.000000,998.000000) scale(0.100000,-0.100000)"
fill="#000000" stroke="none">
<path d="M8721 8214 c0 -11 3 -14 6 -6 3 7 2 16 -1 19 -3 4 -6 -2 -5 -13z"/>
<path d="M8745 8200 c-5 -8 -4 -11 2 -7 6 4 13 0 17 -8 3 -8 -3 -19 -12 -25
-14 -8 -13 -9 7 -7 14 2 25 11 27 21 1 10 0 15 -3 12 -3 -3 -11 2 -18 11 -9
13 -14 13 -20 3z"/>
<path d="M8710 8160 c0 -5 5 -10 11 -10 5 0 7 5 4 10 -3 6 -8 10 -11 10 -2 0
-4 -4 -4 -10z"/>
<path d="M8815 8143 c4 -10 8 -27 9 -39 2 -11 7 -27 11 -35 4 -8 -2 -4 -14 9
-12 12 -25 22 -30 22 -4 0 -13 10 -20 23 l-11 22 6 -23 c5 -22 4 -23 -15 -13
-12 7 -21 17 -21 23 0 7 -7 3 -15 -8 -8 -10 -14 -23 -14 -29 0 -5 4 -2 10 8
15 26 26 13 24 -28 -2 -19 1 -33 5 -30 5 3 15 2 24 -1 12 -5 13 -10 5 -25 -5
-10 -15 -19 -21 -19 -6 0 -5 7 3 18 13 15 12 16 -2 4 -14 -10 -18 -10 -23 3
-6 18 -26 11 -26 -8 0 -9 2 -9 8 0 6 9 11 7 19 -6 9 -15 9 -23 -3 -37 -10 -14
-14 -15 -12 -4 3 15 -3 20 -22 20 -5 0 -2 -9 7 -20 9 -11 19 -32 21 -47 4 -36
12 -43 12 -12 0 19 2 21 10 9 6 -9 5 -20 -3 -30 -11 -13 -10 -13 6 -1 21 17
22 37 2 45 -8 3 -15 13 -14 23 0 11 3 13 6 6 2 -7 9 -13 14 -13 6 0 7 5 4 10
-3 6 -2 10 2 10 5 0 10 -20 11 -45 1 -35 -2 -45 -14 -45 -13 0 -14 -3 -5 -13
8 -10 7 -17 -1 -25 -9 -9 -9 -12 2 -12 7 0 11 -3 7 -6 -11 -11 -29 7 -19 19 6
8 3 19 -10 32 -20 20 -20 20 -13 -7 6 -23 4 -26 -14 -21 -12 3 -21 10 -21 15
0 6 6 8 13 5 25 -9 15 65 -12 93 -24 25 -20 9 5 -20 15 -18 15 -29 3 -53 -13
-24 -27 -13 -24 18 2 14 -1 23 -6 19 -5 -3 -6 -10 -3 -16 4 -6 -1 -17 -11 -25
-11 -7 -13 -13 -7 -13 7 0 12 -7 12 -16 0 -13 -3 -14 -13 -5 -16 13 -27 5 -26
-18 0 -13 2 -12 8 2 6 17 8 17 20 3 9 -11 10 -16 2 -16 -6 0 -11 -5 -11 -11 0
-5 5 -7 10 -4 6 3 10 2 10 -3 0 -19 -13 -20 -38 -4 -15 9 -23 11 -19 5 12 -20
-2 -35 -17 -20 -10 9 -11 14 -2 19 8 6 8 8 -1 8 -21 0 -23 -17 -3 -35 10 -9
16 -23 13 -31 -3 -8 0 -14 7 -14 6 0 9 4 5 9 -10 17 13 22 28 6 21 -20 27 -19
22 4 -2 11 3 25 11 32 8 7 11 16 6 23 -5 6 -7 17 -6 24 1 6 2 19 3 28 1 13 5
11 20 -7 11 -13 17 -28 14 -33 -3 -4 -9 -2 -14 5 -7 11 -9 10 -9 -3 0 -9 5
-20 10 -23 14 -9 42 14 34 27 -4 6 5 2 20 -7 29 -19 35 -30 11 -21 -8 3 -15 0
-15 -7 0 -8 -3 -8 -9 2 -11 17 -25 -3 -15 -21 4 -7 -2 -4 -14 6 -15 13 -22 15
-22 6 0 -7 8 -19 18 -27 16 -13 16 -13 -3 -11 -14 2 -20 -3 -20 -17 0 -11 5
-23 10 -27 6 -4 -4 -10 -21 -14 -17 -3 -31 -12 -31 -20 0 -8 4 -14 9 -14 4 0
8 -5 8 -10 0 -6 -8 -5 -19 2 -15 9 -17 16 -10 30 6 11 6 18 0 18 -5 0 -12 -11
-15 -25 -4 -14 -13 -25 -20 -25 -9 0 -13 -10 -12 -25 1 -26 20 -29 22 -4 0 8
2 18 2 23 3 12 32 -14 32 -28 0 -6 -5 -4 -11 4 -9 12 -10 11 -6 -7 3 -12 2
-22 -2 -21 -29 3 -37 -4 -35 -32 1 -20 -3 -30 -12 -30 -8 0 -14 -8 -13 -17 0
-11 3 -13 6 -5 2 6 12 12 21 12 13 0 11 -4 -6 -16 -26 -18 -29 -36 -4 -28 14
5 14 4 2 -4 -20 -15 -30 -6 -30 26 0 15 -4 34 -9 41 -6 9 -6 22 1 34 5 10 7
22 3 25 -3 3 -8 -4 -12 -16 -3 -12 -10 -19 -17 -15 -8 4 -7 2 1 -7 6 -7 9 -19
6 -26 -3 -8 0 -14 6 -14 6 0 11 -10 11 -22 0 -12 -3 -18 -6 -15 -9 9 -46 -12
-39 -22 2 -5 -2 -14 -11 -21 -12 -11 -12 -15 -2 -21 8 -5 15 -2 19 9 5 11 7 6
7 -14 -1 -30 -1 -31 -20 -12 -10 10 -24 16 -31 12 -7 -4 -9 -4 -5 1 4 4 3 14
-3 21 -12 15 -3 37 12 28 5 -3 7 -10 4 -15 -3 -5 1 -6 9 -3 9 3 15 9 14 12 -3
14 14 42 22 37 5 -3 12 0 16 6 4 8 3 9 -4 5 -8 -4 -12 0 -12 11 0 11 -5 24
-11 30 -7 7 -2 20 17 42 21 25 24 35 15 41 -8 4 -9 10 -5 12 5 3 3 3 -3 2 -7
-2 -13 2 -13 8 0 6 -3 8 -6 5 -4 -4 -1 -13 5 -21 10 -12 9 -21 -5 -45 -10 -16
-21 -28 -25 -25 -4 2 -5 -5 -2 -16 7 -27 -12 -25 -31 2 -9 12 -16 18 -16 12 0
-6 13 -23 30 -37 18 -16 27 -33 24 -42 -9 -23 -24 -18 -25 8 l-1 22 -6 -23
c-4 -13 -10 -23 -14 -23 -25 2 -28 -1 -13 -15 21 -21 11 -31 -12 -13 -16 13
-17 12 -4 -3 10 -14 11 -21 2 -32 -8 -10 -8 -16 2 -25 8 -6 18 -7 23 -3 4 4 3
0 -4 -9 -6 -9 -9 -19 -5 -23 4 -4 -7 -6 -25 -4 -18 1 -32 6 -32 10 0 4 4 8 8
8 4 0 8 9 9 20 1 11 -3 20 -8 20 -6 0 -8 -4 -4 -9 3 -5 -2 -16 -10 -25 -9 -9
-11 -17 -5 -21 5 -3 10 -11 10 -16 0 -6 -5 -7 -12 -3 -7 5 -8 3 -4 -5 5 -7 10
-10 13 -7 5 4 43 -30 43 -39 0 -3 -6 -4 -12 -2 -7 1 -12 -6 -10 -15 2 -13 -2
-16 -15 -11 -10 4 -22 11 -26 17 -6 7 -7 4 -3 -6 7 -22 -12 -35 -20 -14 -4 9
0 23 7 32 12 14 14 14 26 -2 7 -10 13 -16 14 -13 0 2 2 12 4 21 2 10 -2 15
-10 12 -7 -3 -18 6 -24 23 l-11 28 5 -30 5 -30 -20 24 c-11 13 -20 18 -20 13
0 -6 5 -14 11 -18 8 -4 7 -9 -2 -15 -11 -7 -11 -9 -1 -9 10 0 9 -6 -2 -27 -12
-25 -12 -30 2 -42 11 -11 12 -16 3 -19 -8 -3 -5 -9 8 -19 12 -8 21 -21 21 -30
0 -12 3 -13 14 -4 10 9 15 8 19 -2 3 -9 -2 -13 -16 -12 -11 1 -24 11 -28 23
-5 12 -15 22 -24 22 -9 0 -15 9 -16 23 -1 18 -3 16 -9 -8 -7 -28 -8 -29 -10
-5 -2 23 -3 22 -11 -8 -8 -28 -12 -32 -24 -22 -20 17 -19 31 3 24 13 -5 14 -4
3 4 -7 5 -17 15 -21 22 -5 7 -7 2 -7 -14 0 -22 32 -66 43 -58 2 1 3 -1 2 -5
-2 -5 -5 -7 -8 -6 -3 1 -12 3 -20 5 -8 2 -18 10 -23 18 -4 8 -5 3 -2 -13 3
-16 2 -26 -3 -23 -4 2 -14 0 -22 -5 -13 -9 -13 -10 0 -6 8 2 20 -5 26 -16 9
-17 8 -24 -5 -36 -9 -9 -12 -13 -7 -8 18 13 27 7 16 -13 -13 -24 -44 -15 -37
11 3 11 1 16 -5 13 -5 -3 -8 -15 -5 -25 6 -23 -9 -25 -21 -2 -8 13 -9 11 -9
-12 0 -15 2 -23 6 -19 3 5 17 10 30 12 14 1 22 0 19 -4 -4 -3 -3 -17 2 -30 8
-19 6 -24 -6 -24 -11 0 -13 6 -9 20 6 20 -9 28 -20 10 -10 -16 -54 10 -48 29
4 9 3 13 -1 10 -12 -11 -17 -57 -6 -64 6 -3 7 1 4 9 -3 9 -1 16 5 16 6 0 11
-5 11 -11 0 -5 5 -7 10 -4 6 3 10 1 10 -5 0 -6 4 -8 10 -5 5 3 7 0 4 -9 -4
-11 1 -14 20 -12 18 2 23 0 17 -8 -4 -6 -7 -19 -6 -29 2 -9 -1 -15 -6 -11 -5
3 -9 15 -10 27 0 21 -1 21 -9 2 -4 -11 -6 -32 -3 -46 3 -15 1 -29 -4 -32 -4
-3 -8 16 -7 41 1 26 -2 54 -7 62 -8 13 -9 13 -8 0 3 -27 -1 -40 -11 -40 -5 0
-7 6 -4 14 3 8 0 17 -6 21 -8 5 -11 -1 -8 -21 2 -17 -2 -29 -11 -32 -9 -3 -11
0 -6 8 5 8 4 11 -3 6 -6 -3 -18 2 -28 11 -16 16 -17 16 -12 1 4 -9 0 -22 -8
-28 -8 -7 -14 -19 -14 -27 0 -8 -5 -11 -10 -8 -6 4 -8 10 -5 15 3 5 1 11 -4
14 -13 8 -8 -19 6 -36 7 -8 8 -19 3 -27 -6 -11 -12 -7 -25 15 -9 16 -13 20 -9
9 4 -11 7 -27 8 -35 0 -8 11 -16 23 -16 20 -2 23 2 18 20 -5 15 -4 17 3 7 13
-17 23 1 11 19 -5 8 -9 21 -9 29 0 11 3 11 15 1 8 -7 12 -16 9 -21 -3 -5 0 -9
6 -9 6 0 2 -13 -10 -30 -21 -30 -18 -38 9 -21 7 5 10 14 7 20 -4 6 -2 11 3 11
6 0 11 -7 11 -16 0 -9 5 -12 12 -8 7 5 8 3 4 -5 -5 -7 -10 -10 -13 -7 -12 12
-42 -15 -36 -31 4 -10 2 -14 -4 -10 -12 8 -36 -17 -26 -26 3 -4 1 -7 -5 -7 -6
0 -14 5 -17 10 -3 6 -1 10 5 10 6 0 9 4 6 9 -3 4 -17 7 -31 6 -14 -2 -27 1
-30 5 -9 14 -36 -1 -34 -19 3 -30 -1 -42 -11 -36 -6 4 -8 11 -5 16 4 5 3 9 -2
10 -4 0 -15 2 -25 4 -12 2 -15 -3 -12 -20 3 -16 -2 -28 -13 -34 -10 -6 -13
-11 -6 -11 6 0 9 -8 6 -18 -2 -10 3 -25 13 -33 10 -8 15 -9 12 -4 -7 11 17 37
25 28 3 -3 3 6 0 19 -4 12 -13 29 -20 36 -7 8 -10 18 -7 24 4 5 14 -2 23 -16
10 -14 22 -23 26 -19 5 5 4 0 -3 -9 -12 -15 -10 -16 20 -12 24 2 27 1 13 -5
-18 -7 -18 -8 -1 -18 16 -9 16 -10 0 -24 -16 -12 -17 -12 -11 3 3 9 -1 22 -9
29 -13 11 -14 7 -10 -32 3 -26 2 -39 -3 -30 -7 11 -10 9 -15 -7 -4 -11 -13
-23 -21 -26 -19 -7 -19 4 0 18 9 7 12 16 6 25 -7 11 -12 9 -22 -10 -7 -13 -14
-30 -15 -38 -2 -7 -12 -20 -24 -28 -16 -12 -19 -18 -9 -23 9 -6 8 -12 -4 -25
-16 -16 -17 -15 -16 12 4 56 -20 118 -36 93 -3 -5 -2 -10 4 -10 10 0 7 -31 -5
-53 -5 -8 -2 -8 9 2 15 12 17 11 15 -10 -2 -26 -38 -69 -38 -46 0 7 6 19 13
26 6 7 8 12 2 11 -21 -4 -24 1 -15 26 7 16 7 23 0 19 -6 -3 -10 -12 -10 -20 0
-7 -6 -15 -14 -18 -7 -3 -12 -17 -11 -34 1 -15 -2 -33 -7 -40 -5 -7 -5 -14 2
-18 6 -3 8 -11 5 -16 -4 -5 0 -9 7 -9 8 0 6 -5 -5 -11 -14 -8 -16 -14 -6 -25
8 -10 8 -14 0 -14 -6 0 -11 6 -11 13 0 9 -2 9 -9 -1 -4 -7 -5 -31 -1 -52 4
-22 3 -37 -1 -34 -5 3 -9 18 -9 35 0 20 -5 29 -16 29 -8 0 -12 5 -9 10 4 6 10
8 15 5 4 -3 11 2 14 10 4 13 2 14 -14 5 -15 -8 -20 -8 -20 2 0 10 -2 10 -9 0
-7 -11 -10 -10 -15 3 -8 23 -8 25 6 23 15 -4 23 41 11 53 -6 6 -8 -3 -6 -23 3
-24 2 -29 -6 -18 -5 8 -7 19 -4 25 3 5 -8 -3 -25 -19 -29 -27 -30 -31 -17 -46
8 -9 12 -20 8 -23 -3 -4 -1 -7 5 -7 16 0 15 10 -3 30 -14 15 -13 19 5 35 11
10 20 13 20 7 0 -6 -5 -14 -10 -17 -6 -4 -4 -12 5 -21 8 -9 12 -20 9 -26 -5
-7 -2 -8 6 -3 8 5 11 3 8 -5 -2 -7 -14 -15 -26 -17 -16 -2 -25 4 -32 21 -11
29 -26 40 -35 26 -4 -6 -11 -8 -16 -5 -5 3 -6 -1 -2 -11 5 -15 7 -15 15 0 11
19 28 12 28 -11 0 -9 -3 -13 -6 -10 -4 3 -15 2 -25 -3 -16 -9 -16 -12 -3 -40
16 -31 26 -39 22 -18 -2 7 6 12 17 13 11 0 26 4 34 9 10 6 16 5 19 -3 3 -8 8
-7 16 5 10 13 15 14 21 4 5 -9 4 -11 -3 -6 -19 11 -14 -5 6 -21 16 -13 16 -13
-3 -6 -21 9 -81 10 -89 2 -3 -3 4 -10 14 -17 12 -7 20 -8 20 -2 0 5 5 10 11
10 8 0 8 -5 -1 -15 -9 -11 -16 -12 -25 -5 -10 8 -15 8 -21 -1 -5 -9 -11 -7
-20 6 -8 10 -17 16 -21 12 -3 -4 2 -16 11 -26 19 -21 13 -46 -9 -37 -8 3 -16
0 -19 -7 -2 -7 -5 -4 -5 7 -1 14 4 17 19 13 24 -6 26 5 5 23 -9 7 -14 18 -12
25 7 16 -20 75 -33 75 -6 0 -4 -7 5 -16 21 -21 15 -50 -10 -47 -11 1 -14 0 -7
-3 6 -3 12 -10 12 -15 0 -6 -4 -8 -9 -5 -5 4 -7 -3 -4 -14 3 -11 0 -20 -6 -20
-6 0 -11 -8 -12 -17 0 -16 -1 -16 -8 1 -5 12 -10 16 -14 9 -4 -6 -3 -23 2 -36
8 -20 6 -27 -5 -31 -9 -3 -19 -4 -24 -1 -4 3 -10 -4 -13 -15 -3 -13 -14 -20
-29 -20 -18 0 -20 2 -8 9 8 6 18 7 22 5 4 -3 8 5 8 17 0 17 4 20 21 16 16 -4
20 -1 17 15 -2 12 -9 24 -17 26 -10 3 -12 0 -8 -12 4 -10 3 -15 -3 -11 -6 3
-10 1 -10 -5 0 -6 -4 -8 -10 -5 -6 3 -7 -1 -4 -10 5 -11 2 -14 -10 -9 -22 8
-20 25 4 31 11 3 20 10 20 15 0 5 -4 6 -10 3 -5 -3 -10 1 -10 11 0 14 2 15 17
3 9 -8 14 -9 10 -2 -5 7 0 9 13 6 14 -4 20 0 20 12 0 14 3 15 14 6 10 -8 16
-9 21 -1 4 6 1 9 -6 8 -6 -2 -14 3 -16 10 -3 6 0 12 7 12 7 0 7 5 -2 14 -7 8
-17 12 -22 9 -4 -3 -3 -9 4 -13 8 -5 7 -11 -4 -22 -8 -9 -12 -18 -9 -22 4 -3
1 -6 -5 -6 -7 0 -12 9 -12 21 0 11 5 17 10 14 16 -10 12 1 -6 15 -8 8 -14 9
-13 4 1 -5 1 -20 0 -34 l-2 -25 -14 25 c-10 19 -10 27 -2 32 8 5 8 8 1 8 -19
0 -24 -12 -13 -32 14 -26 4 -35 -18 -17 -17 13 -17 12 -2 -6 17 -23 18 -32 3
-59 -7 -11 -14 -15 -18 -8 -3 6 -2 13 4 17 5 3 10 11 10 16 0 6 -7 3 -16 -6
-9 -9 -14 -19 -10 -22 3 -3 -2 -12 -12 -20 -15 -13 -15 -13 6 -3 17 8 22 8 22
-2 0 -9 3 -9 10 2 5 8 10 10 10 4 0 -5 -6 -19 -14 -30 -10 -13 -11 -23 -4 -32
6 -7 8 -15 4 -19 -3 -3 -6 0 -6 7 0 7 -10 1 -21 -14 -12 -15 -24 -24 -27 -21
-4 3 0 10 8 15 11 7 12 10 2 10 -7 0 -10 5 -6 11 5 8 9 8 14 -1 5 -8 9 -7 13
4 4 9 2 17 -3 17 -6 1 -16 2 -22 3 -7 1 -15 -8 -18 -19 -5 -15 -14 -20 -37
-18 -28 1 -30 -1 -27 -30 3 -24 1 -28 -6 -17 -5 8 -10 12 -11 8 -5 -25 -4 -34
6 -41 6 -5 4 -7 -5 -4 -8 2 -15 8 -15 13 -1 5 -5 20 -9 33 -6 18 -10 21 -17
10 -5 -8 -6 -23 -3 -34 3 -15 1 -14 -10 5 -8 14 -18 24 -23 23 -4 -2 -8 13 -8
32 0 34 -16 50 -23 23 -2 -9 0 -8 7 2 9 12 11 11 11 -8 0 -15 -4 -21 -12 -16
-6 4 -8 3 -4 -4 3 -5 0 -13 -6 -15 -10 -4 -10 -6 0 -6 6 -1 12 -5 12 -10 0 -6
-9 -8 -19 -6 -15 3 -23 -5 -31 -31 -7 -19 -16 -31 -22 -28 -6 4 -8 -1 -3 -15
8 -25 -10 -29 -19 -4 -6 15 8 32 25 33 4 0 10 16 13 35 4 20 11 33 15 31 4 -3
8 1 8 8 0 8 -6 12 -14 9 -7 -3 -13 -10 -13 -17 0 -6 -5 -18 -10 -26 -9 -13
-11 -13 -20 0 -7 11 -10 11 -10 2 0 -7 7 -15 16 -19 12 -4 13 -8 3 -14 -8 -4
-18 -1 -26 9 -12 16 -12 15 -6 -2 5 -15 3 -17 -8 -11 -11 7 -11 4 2 -15 8 -14
16 -38 16 -55 1 -23 0 -26 -6 -11 -5 14 -10 16 -15 8 -4 -7 -4 -18 -1 -24 4
-7 -1 -4 -9 6 -16 20 -16 20 -31 0 -14 -18 -14 -18 -8 4 3 14 1 22 -8 22 -7 0
-10 2 -7 5 3 3 17 1 32 -4 17 -7 26 -7 26 -1 0 6 -4 10 -10 10 -30 0 -60 17
-60 33 0 7 4 6 10 -3 8 -13 13 -13 31 -2 19 12 21 12 16 -2 -4 -9 -2 -16 3
-16 21 0 17 18 -9 43 l-28 26 5 -27 c5 -24 3 -25 -10 -14 -11 9 -18 10 -23 2
-3 -6 -10 -8 -15 -5 -4 3 -10 -2 -14 -10 -7 -20 -33 -19 -45 3 -6 9 -11 12
-11 5 0 -6 5 -15 10 -18 16 -10 2 -25 -16 -18 -13 5 -15 1 -9 -18 3 -13 3 -19
-2 -14 -16 20 -30 13 -41 -21 -9 -30 -8 -36 11 -50 l22 -16 -22 7 c-19 5 -22
3 -17 -12 4 -11 3 -14 -3 -7 -15 20 -51 35 -58 24 -3 -5 -1 -10 4 -10 6 0 11
-10 10 -22 0 -23 0 -23 -9 -2 -13 32 -39 38 -50 11 -8 -20 -9 -21 -10 -2 -1
18 -1 19 -11 2 -13 -22 -4 -37 20 -32 10 2 24 -1 32 -7 11 -8 11 -9 -3 -5 -9
3 -24 -3 -33 -13 -15 -17 -16 -22 -4 -37 10 -11 10 -14 1 -9 -22 13 -40 60
-31 81 11 30 11 35 -7 35 -8 0 -13 -3 -11 -7 3 -5 1 -17 -4 -28 -5 -14 -8 -6
-8 29 -1 42 1 47 12 33 11 -16 13 -16 26 5 13 21 13 22 -2 10 -13 -11 -17 -10
-25 5 -9 16 -11 15 -17 -10 -4 -15 -11 -27 -17 -27 -5 0 -6 5 -2 12 4 6 3 8
-3 5 -6 -4 -10 -17 -9 -29 1 -13 -6 -41 -15 -64 -16 -37 -16 -41 0 -51 13 -9
14 -13 3 -24 -11 -12 -12 -11 -7 2 4 10 0 19 -9 22 -9 4 -13 15 -11 29 3 12
-1 26 -8 30 -8 6 -6 8 7 6 10 -2 21 2 23 9 2 6 -2 11 -9 9 -25 -3 -37 -17 -31
-33 4 -11 2 -14 -8 -11 -8 3 -13 14 -12 24 1 10 0 13 -3 7 -3 -7 -12 -13 -20
-13 -9 0 -12 -5 -9 -10 4 -6 11 -7 17 -4 6 4 8 -1 4 -14 -4 -13 -1 -31 9 -46
12 -18 13 -26 4 -32 -7 -4 -9 -3 -6 3 4 6 -2 22 -14 36 -11 15 -19 28 -19 29
1 2 -2 13 -7 25 l-8 22 -11 -24 c-10 -19 -9 -22 4 -18 9 4 13 1 11 -6 -3 -7
-9 -12 -14 -12 -6 0 -18 -8 -27 -16 -11 -10 -18 -12 -18 -5 0 7 -5 12 -10 12
-7 0 -7 -6 -2 -17 5 -10 7 -25 5 -33 -2 -8 8 -2 23 15 23 25 26 26 20 7 -10
-31 0 -28 18 6 8 15 15 22 16 17 0 -18 -31 -56 -41 -49 -15 9 -41 -17 -34 -35
3 -11 1 -10 -10 3 -10 14 -11 24 -4 37 6 13 6 19 -1 19 -14 0 -13 33 3 49 10
10 7 10 -13 1 -14 -6 -26 -20 -27 -30 -1 -11 1 -19 5 -17 4 1 8 -1 10 -5 5
-18 1 -28 -13 -28 -9 0 -12 -6 -9 -17 4 -13 3 -14 -3 -5 -7 10 -17 4 -40 -22
l-30 -36 -11 24 c-8 17 -7 23 3 23 8 0 11 -7 7 -16 -3 -9 8 -3 25 13 17 16 30
34 29 40 -2 6 -1 8 1 4 2 -4 11 -4 18 -2 11 5 11 9 2 19 -6 7 -17 10 -24 8 -7
-3 -10 3 -6 16 3 13 1 21 -7 21 -7 0 -10 -7 -7 -14 4 -10 1 -13 -9 -9 -7 3
-14 0 -14 -6 0 -6 7 -11 15 -11 8 0 15 -4 15 -10 0 -5 -7 -10 -15 -10 -8 0
-15 -5 -15 -11 0 -5 5 -7 12 -3 6 4 8 3 4 -4 -3 -6 -18 -9 -31 -6 -25 4 -28 0
-27 -41 1 -17 0 -17 -4 -2 -3 9 -10 17 -14 17 -6 0 -6 -10 -1 -23 6 -15 5 -29
-1 -38 -8 -12 -9 -11 -5 2 3 9 1 22 -4 30 -7 11 -9 11 -9 -3 0 -20 -11 -23
-27 -7 -8 8 -11 1 -11 -26 0 -20 -3 -39 -7 -43 -4 -4 -5 5 -3 21 3 15 2 30 -3
33 -5 3 -3 14 4 24 12 20 28 27 26 13 -4 -25 4 -21 26 12 15 20 24 40 20 43
-3 3 -5 2 -5 -2 0 -5 -12 -1 -27 8 l-28 17 22 -19 c17 -15 19 -22 10 -31 -9
-9 -16 -6 -30 11 l-18 23 11 -23 c11 -22 10 -23 -12 -17 -20 7 -21 6 -9 -9 11
-14 11 -16 -2 -16 -22 0 -31 18 -17 35 10 12 8 13 -11 10 -12 -3 -27 -9 -33
-15 -8 -8 -6 -9 7 -5 18 7 19 5 21 -50 0 -16 5 -36 10 -44 5 -8 -9 0 -33 19
-23 19 -39 40 -37 47 3 7 0 15 -7 19 -7 4 -9 4 -5 -1 4 -4 3 -14 -4 -22 -9
-11 -13 -11 -27 1 -10 9 -22 12 -30 7 -9 -6 -10 -11 -2 -15 6 -4 11 -2 11 4 0
6 5 8 11 5 13 -9 -14 -35 -53 -52 -16 -7 -28 -17 -28 -22 0 -5 -8 -8 -17 -6
-10 1 -17 10 -17 19 1 8 -3 13 -8 10 -5 -3 -7 -17 -3 -31 3 -14 2 -22 -3 -19
-16 10 -44 -20 -44 -47 0 -15 -4 -30 -9 -33 -5 -3 -6 3 -2 13 6 16 5 16 -10 4
-11 -9 -17 -10 -17 -2 0 6 -5 11 -11 11 -6 0 -9 -6 -6 -12 2 -7 1 -22 -4 -33
l-8 -20 0 20 c-1 17 -3 17 -11 5 -7 -11 -5 -19 7 -27 19 -14 6 -18 -15 -4 -11
7 -10 15 6 45 12 23 17 45 14 59 -6 18 -8 15 -13 -18 -6 -38 -8 -40 -14 -15
-1 6 -4 13 -5 18 -1 4 -2 10 -2 14 1 3 -5 9 -13 12 -17 6 -21 -9 -5 -19 6 -3
10 -11 10 -16 0 -6 -4 -8 -8 -5 -5 3 -9 -1 -9 -9 0 -8 4 -12 8 -9 14 8 22 -17
9 -29 -10 -9 -11 -9 -6 1 4 6 2 12 -3 12 -6 0 -12 -19 -12 -42 -1 -40 -2 -41
-8 -13 -4 17 -4 38 1 48 6 11 5 17 -3 17 -7 0 -9 3 -6 7 4 3 -2 13 -13 20 -11
8 -17 19 -14 25 5 7 2 8 -6 3 -10 -6 -12 -4 -7 8 4 11 2 14 -9 10 -10 -4 -12
-9 -4 -18 8 -9 6 -17 -5 -29 -9 -9 -14 -16 -10 -16 3 0 1 -9 -5 -20 -6 -11 -7
-20 -1 -20 5 0 14 13 19 30 8 21 16 28 26 24 9 -3 13 -10 10 -15 -3 -6 0 -18
7 -27 11 -14 11 -15 -1 -4 -19 17 -40 15 -40 -3 0 -8 3 -14 8 -14 36 6 59 -20
32 -36 -5 -3 -7 0 -4 8 3 10 -5 16 -26 21 -26 5 -37 1 -60 -21 -16 -15 -26
-33 -23 -42 4 -13 3 -14 -5 -2 -6 8 -9 23 -7 33 2 11 -2 18 -11 18 -8 0 -15
-11 -15 -27 -2 -24 -2 -25 -6 -5 -2 12 -9 22 -16 22 -6 0 -2 7 9 15 18 15 18
15 0 8 -13 -4 -17 -3 -12 5 4 7 2 20 -4 29 -10 16 -11 16 -7 -3 3 -13 -3 -25
-14 -33 -12 -7 -19 -7 -19 -1 0 5 -7 10 -15 10 -12 0 -12 -3 3 -18 13 -14 19
-15 25 -5 10 16 23 17 25 1 3 -34 10 -51 25 -60 9 -5 17 -14 17 -19 0 -6 -7
-3 -16 5 -20 20 -28 20 -20 0 3 -8 2 -12 -4 -9 -6 4 -8 17 -6 30 3 14 0 27 -5
30 -5 4 -9 -2 -9 -12 0 -12 -3 -14 -8 -6 -10 15 -38 -5 -45 -32 -2 -11 -3 -8
-2 8 1 17 -3 27 -12 27 -8 0 -11 -4 -8 -10 3 -5 -1 -10 -10 -10 -9 0 -14 4
-11 9 3 5 -1 11 -9 15 -8 3 -14 2 -14 -2 4 -22 -2 -42 -10 -37 -5 3 -18 -6
-29 -19 -14 -18 -22 -22 -30 -14 -8 8 -15 8 -27 -2 -12 -10 -15 -10 -15 0 0 7
-9 3 -20 -10 -11 -12 -17 -27 -13 -33 3 -6 1 -7 -5 -3 -6 4 -9 13 -5 21 3 8 1
15 -5 15 -15 0 -22 -26 -9 -39 8 -8 6 -11 -9 -11 -21 0 -44 17 -44 33 0 4 6 5
13 2 6 -4 1 3 -13 14 -14 11 -29 21 -35 21 -5 0 -3 -5 5 -10 10 -6 11 -10 3
-10 -7 0 -13 -11 -13 -25 0 -23 -2 -24 -20 -15 -11 6 -20 7 -20 3 0 -5 -12
-10 -27 -11 -14 -1 -28 -4 -30 -6 -7 -7 10 -36 18 -30 5 3 7 10 4 15 -4 5 -1
9 4 9 16 0 13 -16 -4 -30 -12 -10 -16 -9 -21 4 -4 11 -11 13 -24 6 -31 -17
-31 3 0 31 28 26 43 58 20 44 -5 -3 -10 -13 -10 -21 0 -8 -5 -12 -10 -9 -6 4
-7 13 -1 24 7 13 6 18 -3 18 -9 0 -13 -10 -11 -23 1 -13 -6 -31 -16 -40 -21
-19 -26 -50 -7 -38 7 5 8 3 4 -5 -6 -9 -13 -8 -29 6 -38 31 -47 46 -37 58 7 8
5 12 -5 12 -7 0 -13 -5 -12 -11 1 -6 -4 -10 -10 -9 -7 2 -12 -2 -10 -8 1 -6
-4 -14 -10 -16 -16 -6 -14 45 1 67 10 13 9 13 -7 1 -9 -7 -16 -19 -15 -25 4
-19 -12 -66 -23 -66 -6 0 -6 6 1 19 7 15 7 22 -2 27 -7 4 -10 3 -5 -1 4 -5 1
-18 -7 -31 -20 -29 -11 -35 29 -18 19 8 36 10 40 5 3 -5 18 -7 33 -5 21 3 29
1 29 -11 0 -11 -4 -12 -14 -4 -10 9 -13 7 -13 -10 0 -12 4 -19 10 -16 6 3 7
-1 3 -10 -5 -13 -7 -14 -14 -3 -5 7 -9 21 -9 32 0 16 -2 17 -17 5 -11 -10 -14
-10 -9 -1 11 18 -14 15 -37 -5 -11 -10 -17 -12 -13 -5 4 6 2 12 -3 12 -6 0
-11 -13 -11 -29 0 -37 -8 -42 -40 -25 -22 12 -23 14 -5 14 19 1 19 1 2 14 -11
9 -14 17 -8 21 20 12 32 43 19 51 -6 4 -8 3 -5 -3 4 -6 -1 -17 -10 -24 -15
-12 -16 -12 -10 4 4 10 3 16 -2 12 -5 -3 -11 0 -14 7 -2 7 -2 4 0 -7 7 -34 2
-118 -8 -134 -8 -12 -8 -10 -4 7 4 14 1 30 -8 40 -10 12 -12 23 -6 37 9 18 9
18 5 -2 -2 -13 0 -26 5 -29 5 -3 9 11 9 32 0 31 -2 35 -15 24 -8 -6 -20 -8
-27 -4 -10 5 -10 4 -1 -6 6 -7 9 -19 6 -26 -3 -8 1 -22 8 -31 8 -9 9 -14 2
-10 -6 4 -14 1 -16 -5 -3 -8 -6 -4 -7 7 -1 11 -3 26 -4 32 0 7 -5 12 -11 10
-5 -1 -8 -6 -6 -12 2 -5 6 -21 8 -35 2 -14 -3 -7 -11 14 -8 22 -13 43 -10 47
2 4 0 10 -4 13 -12 7 -9 -65 3 -84 8 -13 7 -13 -8 -1 -9 7 -14 18 -11 25 3 6
-1 3 -9 -7 -13 -15 -15 -16 -21 -2 -6 17 -36 21 -36 5 0 -5 5 -9 11 -7 6 1 14
-5 16 -13 4 -13 3 -13 -6 0 -10 13 -11 13 -11 0 -1 -12 -4 -11 -15 4 -10 13
-11 24 -5 36 6 12 5 17 -5 17 -7 0 -11 -7 -7 -15 3 -10 1 -13 -6 -8 -11 7 -17
-6 -13 -27 1 -5 -3 -6 -9 -2 -7 4 -9 -2 -5 -18 7 -25 -7 -43 -24 -32 -6 3 -3
21 6 43 8 20 12 34 7 30 -4 -4 -13 -3 -21 3 -8 8 -13 8 -13 1 0 -6 6 -12 13
-15 9 -4 9 -7 0 -17 -10 -11 -14 -9 -22 11 -9 23 -10 23 -10 2 -1 -12 -4 -30
-8 -40 -6 -16 -5 -17 13 -3 19 14 19 14 0 -8 -11 -12 -21 -22 -24 -22 -3 0 -2
3 1 7 4 3 0 17 -9 31 -9 13 -11 22 -6 18 12 -7 28 12 18 21 -12 12 -34 -19
-30 -43 3 -14 1 -30 -3 -37 -4 -7 -8 -15 -8 -19 0 -5 -3 -8 -7 -8 -5 0 -11 0
-15 0 -3 0 2 9 12 20 10 11 15 23 11 28 -4 4 -15 -2 -23 -13 -12 -16 -14 -16
-10 -3 8 22 -11 35 -19 14 -4 -9 -1 -23 6 -31 15 -18 7 -19 -35 -4 -26 10 -32
18 -33 41 0 15 3 26 8 23 5 -3 7 -14 5 -24 -5 -27 22 -35 36 -10 6 11 8 23 5
27 -3 3 -6 0 -6 -6 0 -7 -7 -12 -16 -12 -8 0 -13 4 -10 9 3 5 0 14 -8 20 -11
10 -17 6 -29 -19 -9 -16 -11 -30 -6 -30 5 0 9 -7 9 -15 0 -8 -6 -15 -14 -15
-8 0 -17 -8 -19 -17 -4 -14 -5 -12 -6 5 -1 14 5 22 16 22 13 0 14 3 6 11 -6 6
-9 17 -6 24 3 9 -2 12 -13 11 -10 -2 -20 -9 -22 -17 -3 -11 -1 -11 7 1 9 13
11 12 11 -4 0 -12 -5 -16 -14 -13 -21 8 -42 -19 -27 -36 8 -10 7 -14 -4 -14
-8 0 -15 9 -15 19 0 11 -5 16 -10 13 -6 -4 -8 -16 -5 -28 2 -12 2 -16 -1 -9
-3 6 -10 12 -15 12 -6 0 -5 -9 1 -22 11 -22 10 -22 -4 -4 -18 22 -20 36 -7 36
12 0 21 27 15 44 -3 8 -13 17 -22 21 -14 5 -14 4 1 -13 21 -23 22 -39 2 -22
-13 11 -14 10 -9 -4 4 -10 0 -18 -10 -22 -9 -3 -16 -10 -16 -16 0 -5 4 -7 9
-4 9 6 24 -35 16 -43 -3 -2 -5 1 -5 9 0 10 -3 10 -14 1 -10 -8 -16 -9 -21 -1
-3 5 -11 10 -16 10 -6 0 -7 -4 -4 -10 4 -6 -1 -7 -11 -3 -11 4 -15 3 -10 -5 4
-7 -4 -5 -20 3 -15 8 -28 23 -29 34 -1 11 2 18 7 15 4 -3 8 -12 8 -20 0 -8 5
-14 11 -14 6 0 8 7 5 16 -4 9 -2 22 4 29 8 9 6 14 -5 18 -8 4 -14 1 -12 -5 1
-7 -5 -12 -13 -13 -8 0 -15 -9 -15 -20 0 -12 -10 -22 -25 -27 l-25 -8 26 4
c21 2 28 -3 37 -26 10 -28 0 -49 -14 -26 -5 8 -10 6 -15 -8 -6 -14 -8 -15 -8
-3 -1 15 -53 69 -67 69 -3 0 -3 -7 0 -16 3 -8 2 -12 -4 -9 -6 3 -10 -3 -10
-14 0 -15 5 -19 18 -15 13 5 14 4 3 -4 -8 -6 -24 -8 -35 -5 -44 10 -61 8 -57
-7 8 -31 9 -70 0 -65 -4 3 -6 12 -3 20 3 7 1 22 -5 33 -7 13 -7 22 1 30 7 7 9
15 5 19 -4 3 -14 -2 -22 -13 -14 -18 -16 -18 -45 16 -16 19 -30 29 -30 23 0
-7 5 -13 11 -13 8 0 8 -4 0 -14 -9 -11 -9 -20 -2 -35 18 -33 12 -38 -9 -6 -22
32 -26 50 -10 40 6 -3 7 1 3 10 -4 12 -8 13 -13 5 -5 -8 -13 -9 -21 -5 -8 5
-5 -2 6 -15 14 -16 16 -24 8 -27 -7 -3 -13 -11 -13 -18 0 -8 -4 -17 -10 -20
-6 -4 -6 4 0 21 8 21 8 31 -3 42 -12 11 -16 11 -22 1 -5 -8 -4 -10 3 -5 7 4
12 1 12 -9 0 -9 -4 -13 -10 -10 -5 3 -10 1 -10 -4 0 -6 3 -11 8 -11 4 0 7 -18
7 -39 0 -22 -3 -37 -7 -34 -14 8 -9 -400 6 -488 8 -46 17 -113 21 -149 11
-107 25 -193 40 -235 8 -22 21 -75 30 -119 8 -43 22 -90 29 -105 7 -14 21 -53
31 -86 9 -33 22 -66 28 -73 6 -7 19 -39 30 -70 10 -31 23 -61 27 -67 5 -5 24
-39 43 -75 63 -120 72 -135 85 -143 6 -4 20 -23 30 -42 48 -93 306 -348 392
-388 8 -4 29 -16 45 -27 17 -11 41 -25 55 -32 14 -6 32 -17 40 -23 8 -7 42
-23 75 -36 33 -13 65 -26 70 -29 6 -4 31 -12 58 -18 26 -7 66 -17 90 -22 23
-6 51 -12 62 -14 11 -2 48 -9 81 -16 64 -13 414 -9 464 4 14 4 34 9 45 11 11
3 63 14 115 25 52 11 99 25 104 30 6 6 18 10 29 10 45 0 321 129 427 199 34
23 65 41 69 41 4 0 47 32 95 70 48 39 88 70 89 70 14 0 235 215 290 281 15 19
59 72 98 119 84 102 69 82 157 212 39 59 72 110 72 114 0 4 15 30 34 59 19 28
38 64 41 78 4 15 13 31 19 35 7 4 21 29 32 55 30 69 80 136 110 147 75 29 144
-35 152 -142 4 -57 -11 -175 -27 -206 -5 -10 -17 -44 -26 -77 -9 -33 -26 -79
-36 -102 -10 -23 -19 -45 -19 -49 0 -12 -102 -208 -136 -262 -19 -29 -34 -56
-34 -60 0 -5 -18 -33 -40 -62 -22 -29 -40 -57 -40 -62 0 -4 -7 -16 -16 -25 -8
-10 -47 -58 -85 -108 -116 -149 -296 -341 -411 -438 -18 -15 -44 -37 -58 -49
-75 -63 -309 -228 -323 -228 -3 0 -25 -13 -49 -29 -52 -34 -258 -134 -313
-151 -22 -7 -44 -16 -50 -19 -5 -4 -37 -16 -70 -26 -33 -10 -85 -26 -115 -36
-30 -9 -98 -24 -150 -33 -52 -9 -115 -20 -140 -26 -25 -5 -64 -12 -88 -15 -71
-11 -442 -7 -512 5 -36 6 -81 13 -100 16 -103 13 -232 38 -285 54 -33 10 -87
26 -119 36 -33 9 -71 23 -85 30 -14 8 -33 14 -41 14 -15 0 -314 145 -334 162
-6 5 -45 30 -86 57 -41 26 -81 55 -89 64 -7 10 -18 17 -24 17 -5 0 -17 8 -26
18 -9 9 -33 30 -55 46 -58 43 -229 218 -278 283 -24 32 -45 60 -48 63 -25 24
-160 224 -160 236 0 4 -6 15 -14 23 -20 24 -156 299 -156 317 0 4 -8 26 -18
48 -47 106 -120 356 -148 511 -44 236 -53 297 -60 425 -3 63 -7 131 -9 150 -1
19 -3 50 -4 68 -1 24 -5 31 -13 26 -10 -6 -10 -4 -2 7 6 8 10 25 7 39 -2 14
-3 35 -3 48 0 13 -4 21 -9 17 -5 -3 -11 3 -14 12 -4 17 -4 17 -12 -1 -5 -11
-3 -21 5 -26 10 -6 9 -9 -1 -12 -9 -3 -13 -18 -12 -44 l2 -39 -9 35 c-5 19 -6
46 -3 59 4 17 2 22 -6 17 -6 -4 -9 -12 -6 -17 4 -5 1 -9 -5 -9 -7 0 -8 -6 0
-19 13 -25 13 -41 0 -41 -5 0 -6 8 -3 17 5 13 -1 12 -27 -7 -18 -13 -31 -19
-27 -13 4 6 0 19 -9 27 -8 9 -13 22 -11 29 4 9 6 9 6 -1 1 -7 6 -10 11 -7 18
11 11 21 -14 21 -13 0 -22 -5 -20 -11 3 -6 0 -22 -6 -36 -10 -22 -10 -22 -6
-1 2 12 0 22 -6 22 -5 0 -7 4 -4 8 3 5 -1 9 -7 9 -7 0 -14 -10 -15 -21 -1 -17
1 -18 9 -6 9 12 10 12 5 -3 -3 -10 -6 -23 -6 -28 0 -6 -4 -7 -10 -4 -5 3 -10
17 -10 29 0 15 -7 26 -20 29 -11 3 -18 1 -14 -4 3 -5 2 -14 -2 -21 -5 -8 -10
-6 -16 8 -6 13 -7 6 -4 -21 3 -22 2 -31 -1 -21 -5 18 -6 17 -27 -6 -11 -13
-17 -18 -12 -11 6 10 4 12 -10 10 -32 -5 -41 -15 -38 -44 3 -24 3 -25 -4 -5
-4 13 -11 22 -17 20 -5 -2 -8 -7 -7 -13 2 -5 0 -7 -4 -3 -4 4 -14 2 -23 -4
-13 -10 -13 -9 1 7 12 15 14 25 7 38 -14 24 -33 23 -20 -2 8 -14 5 -23 -14
-41 l-24 -23 5 27 c2 14 2 26 -1 26 -9 0 -68 -43 -83 -60 -11 -13 -11 -11 -2
8 6 12 14 22 18 22 4 0 9 11 10 25 1 19 -2 23 -16 18 -14 -5 -15 -3 -4 8 6 7
12 17 12 22 0 5 -12 -6 -26 -23 -15 -17 -24 -33 -21 -36 10 -10 28 7 21 18 -4
7 -2 8 4 4 9 -5 7 -14 -4 -32 -15 -22 -33 -36 -19 -15 3 5 1 12 -5 16 -5 3 -8
18 -4 33 5 25 4 25 -9 10 -8 -10 -18 -14 -23 -10 -4 4 -3 0 4 -9 16 -21 23
-57 13 -64 -5 -2 -8 3 -8 13 0 37 -5 46 -13 22 -8 -24 -8 -24 -9 6 -1 40 -7
44 -36 30 -26 -11 -33 -26 -14 -26 8 0 9 -4 0 -13 -6 -8 -9 -17 -6 -20 3 -4 2
-5 -2 -2 -3 3 -15 -3 -26 -12 -11 -10 -17 -12 -13 -5 4 7 1 12 -9 12 -9 0 -13
5 -10 10 5 8 11 8 20 0 9 -8 15 -8 20 0 8 13 -20 24 -41 16 -10 -4 -14 -14
-11 -26 3 -11 0 -23 -6 -27 -7 -3 -9 -3 -5 2 9 9 -23 36 -34 29 -5 -3 -8 -13
-8 -22 0 -15 2 -15 10 -2 6 9 10 10 10 3 0 -23 -20 -24 -29 -1 -10 23 -10 23
-10 1 -1 -12 -5 -25 -11 -28 -6 -3 -7 1 -4 10 4 8 0 23 -7 32 -12 15 -12 16 4
10 9 -3 17 -5 17 -4 0 1 -7 20 -15 42 l-14 40 -1 -33 c0 -20 -4 -31 -10 -27
-13 8 -13 -1 0 -26 7 -12 7 -19 1 -19 -6 0 -9 -6 -7 -12 1 -7 1 -10 -1 -5 -3
4 -10 4 -16 1 -8 -5 -8 -2 1 7 6 7 12 19 12 27 0 9 -8 4 -20 -11 -12 -15 -27
-24 -35 -21 -10 4 -12 -1 -9 -18 3 -15 0 -11 -10 10 -9 19 -20 31 -26 27 -8
-5 -5 -16 6 -33 14 -22 15 -25 2 -14 -9 7 -18 9 -20 5 -3 -4 -3 -2 -2 5 6 21
-12 13 -26 -13 -10 -18 -16 -22 -22 -13 -4 7 -8 18 -8 23 0 6 4 4 9 -4 7 -11
11 -9 20 8 7 11 9 21 6 21 -3 0 1 10 9 22 9 12 16 27 16 33 0 5 -5 3 -10 -7
-6 -10 -18 -14 -30 -11 -12 3 -20 0 -20 -7 0 -7 7 -10 16 -6 13 5 14 4 6 -7
-7 -8 -9 -16 -6 -20 14 -14 -27 1 -44 16 -10 9 -22 14 -25 10 -4 -3 -7 4 -7
17 0 29 -13 18 -17 -15 -2 -14 1 -25 7 -25 6 0 9 4 6 8 -3 5 1 9 9 9 8 0 15
-6 15 -12 0 -6 -17 -12 -37 -12 -66 -3 -88 -8 -95 -23 -5 -11 -7 -9 -7 6 -1
12 5 24 13 27 16 6 18 47 3 47 -5 0 -7 -7 -4 -15 4 -8 2 -17 -3 -20 -6 -4 -10
5 -10 19 0 16 -8 29 -22 36 -20 9 -21 9 -7 -2 17 -14 31 -68 18 -68 -4 0 -6
-9 -4 -20 2 -11 -1 -20 -7 -20 -6 0 -8 13 -6 30 3 16 0 30 -5 30 -5 0 -4 7 3
15 11 13 10 14 -2 10 -11 -4 -15 -19 -14 -47 1 -29 -3 -42 -14 -45 -13 -4 -13
-3 0 6 13 9 12 12 -5 25 -25 19 -41 21 -26 3 6 -8 8 -17 4 -20 -3 -4 -16 7
-28 24 l-23 30 -21 -27 c-15 -19 -21 -22 -21 -10 0 9 -4 16 -10 16 -5 0 -7 6
-4 14 3 8 1 16 -4 20 -5 3 -7 -5 -6 -17 1 -12 3 -22 4 -22 1 0 3 -8 5 -17 2
-9 -4 -23 -13 -30 -15 -11 -15 -11 -4 3 10 13 9 19 -5 30 -14 12 -16 12 -11
-2 4 -9 -2 -20 -15 -28 -18 -11 -20 -11 -9 0 20 21 14 34 -8 14 -11 -10 -20
-14 -21 -9 -1 5 -5 -2 -9 -16 -7 -21 -8 -22 -9 -5 -1 27 -37 50 -45 30 -6 -16
9 -29 24 -20 6 3 10 2 10 -4 0 -12 -59 -11 -66 1 -3 4 2 11 10 14 9 3 16 12
16 19 0 7 4 15 10 17 6 2 6 9 0 17 -7 12 -10 9 -15 -11 -5 -19 -11 -24 -26
-21 -11 3 -19 0 -19 -6 0 -7 6 -9 12 -6 7 4 5 0 -4 -8 -18 -15 -25 -33 -9 -23
5 4 7 -3 4 -14 -3 -11 -9 -22 -13 -25 -5 -3 -6 5 -2 17 3 14 1 19 -6 14 -8 -5
-10 -1 -5 10 5 14 3 15 -15 5 -12 -7 -22 -18 -22 -26 0 -7 -4 -16 -10 -20 -5
-3 -5 6 1 24 14 40 5 65 -10 29 -6 -16 -13 -28 -15 -28 -3 0 -3 6 0 14 3 7 -2
16 -11 20 -11 4 -15 1 -13 -12 2 -11 -3 -16 -15 -14 -19 3 -21 -2 -8 -27 7
-13 6 -18 -3 -18 -12 0 -15 66 -4 117 3 14 3 19 1 12 -4 -10 -8 -9 -17 4 -11
15 -13 15 -13 0 0 -9 5 -16 11 -16 6 0 3 -7 -8 -15 -10 -8 -15 -19 -10 -26 5
-8 3 -10 -5 -5 -7 5 -10 14 -7 22 9 23 -25 30 -40 9 -11 -14 -14 -15 -14 -4 0
8 6 21 13 28 10 11 9 12 -2 6 -11 -6 -13 -4 -8 9 4 11 3 15 -4 11 -6 -4 -8
-13 -5 -21 7 -18 -2 -18 -21 1 -8 9 -18 13 -21 10 -3 -3 4 -12 15 -20 29 -20
23 -50 -9 -51 -20 -1 -24 3 -22 23 1 13 -2 20 -7 17 -6 -3 -8 6 -4 23 3 15 2
21 -1 13 -4 -8 -15 -25 -25 -38 -10 -13 -15 -31 -12 -40 6 -16 6 -16 -10 0
-19 19 -23 33 -6 22 7 -4 10 -1 7 7 -3 8 -13 14 -24 15 -16 1 -19 -6 -19 -37
1 -21 4 -41 8 -45 4 -4 7 -12 7 -18 -1 -13 -23 24 -26 42 -4 23 -11 24 -37 7
-20 -13 -27 -13 -33 -3 -4 7 -4 10 1 6 10 -9 45 9 45 23 0 6 -6 7 -13 2 -6 -4
-19 -8 -27 -10 -8 -1 -19 -8 -25 -15 -14 -18 -47 -22 -44 -6 3 28 -1 39 -13
32 -8 -5 -7 -1 2 10 13 17 12 18 -5 15 -12 -3 -20 -12 -20 -24 0 -13 6 -19 15
-17 12 3 12 1 3 -9 -9 -9 -9 -18 -1 -33 8 -16 8 -18 -1 -10 -7 6 -14 20 -16
30 -2 11 -4 21 -5 24 0 3 -7 -6 -15 -20 -17 -30 -20 -18 -4 13 14 26 20 97 8
97 -5 0 -9 -7 -9 -16 0 -8 -4 -13 -10 -9 -5 3 -7 12 -3 20 3 8 1 15 -5 15 -5
0 -13 -7 -16 -16 -9 -23 -8 -26 6 -18 8 5 9 2 5 -11 -6 -14 -3 -16 12 -12 14
3 17 0 13 -15 -3 -15 -7 -16 -13 -7 -13 22 -20 4 -20 -55 0 -55 6 -80 19 -72
4 2 8 -26 9 -63 1 -55 26 -197 48 -276 3 -11 12 -49 19 -85 8 -36 26 -103 40
-150 15 -47 31 -103 38 -125 6 -22 17 -54 24 -72 8 -17 14 -35 14 -40 0 -17
116 -318 149 -388 11 -22 38 -80 60 -130 23 -49 46 -97 51 -105 6 -8 19 -35
30 -59 11 -24 29 -56 40 -71 11 -16 20 -33 20 -40 0 -6 13 -30 28 -53 15 -23
34 -55 42 -72 8 -16 19 -34 23 -40 4 -5 25 -37 46 -70 108 -171 135 -211 148
-218 7 -4 13 -12 13 -18 0 -16 180 -248 314 -404 89 -104 388 -399 491 -485
50 -41 109 -90 132 -110 23 -19 54 -44 68 -55 15 -11 41 -31 59 -45 90 -72
469 -320 512 -337 11 -3 21 -10 24 -13 12 -17 386 -201 520 -256 36 -14 74
-30 85 -35 77 -32 158 -61 275 -99 74 -24 144 -47 155 -51 20 -8 122 -35 185
-49 19 -4 62 -15 95 -23 135 -34 210 -48 410 -77 257 -37 393 -47 687 -49 438
-3 821 41 1213 140 159 40 200 51 220 59 11 5 58 20 105 33 85 25 217 70 255
87 11 5 76 32 145 60 132 54 225 95 250 109 8 5 58 31 110 57 52 26 97 51 100
54 3 3 37 21 75 40 39 19 72 37 75 40 13 13 91 60 100 60 5 0 10 5 10 10 0 6
7 10 15 10 8 0 15 5 15 10 0 6 5 10 11 10 10 0 120 72 205 135 22 16 53 39 68
50 16 11 34 26 41 33 8 6 18 12 24 12 6 0 11 3 11 8 0 4 16 18 36 32 20 13 49
36 65 50 16 14 45 39 66 55 20 17 44 37 53 45 8 8 53 49 100 90 90 81 248 238
318 316 24 27 60 67 80 90 21 22 55 62 77 89 22 26 46 54 53 61 6 7 12 15 12
19 0 3 13 20 30 38 16 18 30 35 30 38 0 3 11 19 25 35 14 16 42 54 63 84 20
30 39 57 42 60 15 15 110 161 110 169 0 5 4 11 8 13 12 5 73 108 64 108 -4 0
-2 4 4 8 16 10 66 93 103 168 16 34 34 65 39 68 6 3 13 20 17 36 4 17 11 30
16 30 5 0 9 5 9 11 0 6 24 61 54 122 132 272 274 682 337 972 12 55 24 107 27
115 3 8 6 17 7 20 4 13 21 120 42 265 2 17 8 55 14 85 5 30 12 89 15 130 3 41
9 111 13 155 9 88 6 746 -3 810 -3 22 -9 65 -12 95 -4 30 -8 62 -9 70 -1 8 -5
38 -9 65 -3 28 -8 61 -11 75 -2 14 -7 43 -10 65 -7 53 -22 134 -30 165 -3 14
-12 57 -20 96 -19 94 -71 292 -100 379 -12 39 -26 85 -30 103 -3 17 -10 32
-14 32 -4 0 -8 6 -8 13 0 15 -50 161 -62 185 -6 9 -20 44 -31 77 -12 33 -25
64 -30 70 -4 5 -11 21 -15 35 -7 23 -136 297 -155 330 -5 8 -35 62 -67 119
-31 57 -62 109 -68 115 -6 6 -22 33 -35 60 -14 26 -31 53 -40 60 -8 6 -16 18
-18 26 -4 19 -40 73 -113 170 -31 41 -57 78 -57 83 -3 17 -47 67 -59 67 -8 0
-11 5 -8 10 3 6 1 10 -5 10 -6 0 -9 4 -6 9 4 5 -12 24 -34 41 -22 17 -40 37
-40 44 0 7 -9 21 -20 31 -11 10 -17 22 -14 26 3 5 0 9 -6 9 -8 0 -9 -7 -5 -17z
m-58 -58 c-4 -8 -1 -17 5 -21 6 -4 8 -3 5 2 -3 6 -2 15 2 22 5 8 16 2 37 -21
29 -30 30 -34 18 -67 -12 -33 -15 -34 -18 -10 -3 25 -21 2 -19 -25 l2 -30 -11
28 c-8 22 -13 26 -24 16 -9 -7 -14 -8 -14 -1 0 6 8 13 18 16 9 3 23 15 30 26
11 19 10 22 -17 31 -20 7 -29 17 -28 30 1 10 5 19 10 19 5 0 7 -7 4 -15z m113
-90 c0 -2 -9 -3 -19 -2 -11 0 -18 5 -15 9 4 6 34 0 34 -7z m-45 -55 c-3 -5
-12 -10 -18 -10 -7 0 -6 4 3 10 19 12 23 12 15 0z m-15 -32 c0 -6 -6 -5 -15 2
-8 7 -15 14 -15 16 0 2 7 1 15 -2 8 -4 15 -11 15 -16z m87 -22 c0 -8 -6 -12
-15 -9 -11 5 -11 7 0 14 7 5 13 9 14 9 0 0 1 -6 1 -14z m-60 -11 c0 -8 -4 -12
-9 -9 -5 3 -6 10 -3 15 9 13 12 11 12 -6z m-60 -27 c-3 -8 -6 -5 -6 6 -1 11 2
17 5 13 3 -3 4 -12 1 -19z m38 12 c3 -6 -1 -7 -9 -4 -18 7 -21 14 -7 14 6 0
13 -4 16 -10z m-192 -84 c4 -10 0 -14 -13 -13 -14 1 -16 4 -8 14 13 16 15 16
21 -1z m98 -70 c-6 -7 -7 -17 -3 -21 4 -5 1 -5 -6 -1 -9 6 -10 11 -2 21 6 7 8
21 4 31 -5 18 -5 18 6 1 8 -13 9 -22 1 -31z m53 -16 c-6 -6 -10 -3 -10 10 0
13 4 16 10 10 7 -7 7 -13 0 -20z m-81 -35 c-3 -8 -10 -15 -15 -15 -7 0 -6 5 1
13 6 8 7 18 3 22 -4 5 -2 5 5 1 7 -4 10 -13 6 -21z m144 3 c-3 -8 -6 -5 -6 6
-1 11 2 17 5 13 3 -3 4 -12 1 -19z m-64 -8 c3 -11 1 -18 -4 -14 -5 3 -9 12 -9
20 0 20 7 17 13 -6z m21 4 c3 -8 2 -12 -4 -9 -6 3 -10 10 -10 16 0 14 7 11 14
-7z m-150 -59 c-4 -8 -11 -15 -16 -15 -6 0 -5 6 2 15 7 8 14 15 16 15 2 0 1
-7 -2 -15z m30 -1 c3 -8 2 -12 -4 -9 -6 3 -10 10 -10 16 0 14 7 11 14 -7z
m-64 -36 c0 7 5 10 11 6 8 -4 7 -9 -2 -15 -12 -8 -11 -11 1 -19 9 -6 11 -10 3
-10 -7 0 -17 9 -23 19 -13 25 -13 41 0 21 7 -11 10 -11 10 -2z m107 -30 c-3
-7 -5 -2 -5 12 0 14 2 19 5 13 2 -7 2 -19 0 -25z m-237 -20 c0 -18 -2 -20 -9
-8 -6 8 -7 18 -5 22 9 14 14 9 14 -14z m130 -33 c0 -5 -5 -3 -10 5 -5 8 -10
20 -10 25 0 6 5 3 10 -5 5 -8 10 -19 10 -25z m50 -32 c-11 -17 -11 -17 -6 0 3
10 6 24 7 30 0 9 2 9 5 0 3 -7 0 -20 -6 -30z m53 16 c-8 -8 -13 -7 -18 2 -5 8
-4 10 3 5 7 -4 12 -2 12 5 0 7 3 9 7 6 4 -4 2 -12 -4 -18z m-189 -7 c2 -4 -4
-9 -15 -9 -10 -1 -19 2 -19 8 0 11 27 12 34 1z m79 -17 c-3 -9 -8 -14 -10 -11
-3 3 -2 9 2 15 9 16 15 13 8 -4z m-177 -24 c-3 -5 5 -16 17 -24 21 -13 36 -54
16 -41 -4 2 -10 0 -14 -6 -3 -5 -12 -10 -18 -10 -7 0 -1 9 13 19 22 17 22 19
5 18 -11 -1 -19 3 -17 11 1 6 -2 12 -8 12 -5 0 -10 -5 -10 -11 0 -5 -4 -8 -10
-4 -5 3 -2 14 8 25 17 21 27 27 18 11z m159 -11 c3 -6 -1 -7 -9 -4 -18 7 -21
14 -7 14 6 0 13 -4 16 -10z m-62 -15 c-3 -9 -8 -14 -10 -11 -3 3 -2 9 2 15 9
16 15 13 8 -4z m144 -17 c-3 -8 -6 -5 -6 6 -1 11 2 17 5 13 3 -3 4 -12 1 -19z
m-47 -13 c14 -19 14 -19 -2 -6 -10 7 -18 18 -18 24 0 6 1 8 3 6 1 -2 9 -13 17
-24z m-79 -12 c13 -16 12 -17 -3 -4 -10 7 -18 15 -18 17 0 8 8 3 21 -13z m60
0 c13 -16 12 -17 -3 -4 -10 7 -18 15 -18 17 0 8 8 3 21 -13z m-211 -28 c8 1
21 -3 28 -8 8 -6 12 -5 12 3 0 8 3 10 7 7 3 -4 13 -1 22 5 11 9 11 6 -2 -9
-17 -19 -67 -28 -67 -10 0 4 -5 6 -11 5 -6 -2 -14 4 -16 12 -3 9 -1 11 4 5 4
-6 15 -10 23 -10z m103 0 c-3 -9 -8 -14 -10 -11 -3 3 -2 9 2 15 9 16 15 13 8
-4z m17 -29 c0 -2 -7 -7 -16 -10 -8 -3 -12 -2 -9 4 6 10 25 14 25 6z m-93 -28
c-3 -8 -6 -5 -6 6 -1 11 2 17 5 13 3 -3 4 -12 1 -19z m-21 -27 c-4 -5 -1 -11
6 -13 8 -3 7 -6 -3 -10 -10 -4 -15 1 -16 13 -1 10 3 19 8 19 6 0 8 -4 5 -9z
m51 2 c-4 -3 -2 -12 5 -20 8 -11 7 -12 -6 -7 -18 7 -22 34 -4 34 6 0 8 -3 5
-7z m39 -19 c1 -9 0 -13 -4 -10 -3 4 -7 14 -8 22 -1 9 0 13 4 10 3 -4 7 -14 8
-22z m55 3 c-10 -9 -11 -8 -5 6 3 10 9 15 12 12 3 -3 0 -11 -7 -18z m-198 -32
c17 17 15 35 -4 35 -6 0 -8 -4 -4 -9 3 -5 1 -12 -5 -16 -5 -3 -10 1 -10 9 0
19 14 28 33 20 17 -6 17 -48 -1 -66 -11 -11 -45 7 -49 27 -1 6 -4 19 -8 30 -3
11 2 5 13 -14 17 -31 20 -32 35 -16z m108 -10 c11 6 12 5 2 -6 -10 -9 -16 -10
-24 -2 -6 6 -19 9 -27 5 -14 -5 -15 -4 -2 10 13 14 16 14 26 0 7 -9 16 -12 25
-7z m99 -10 c0 -5 -5 -3 -10 5 -5 8 -10 20 -10 25 0 6 5 3 10 -5 5 -8 10 -19
10 -25z m-173 -27 c2 -17 0 -19 -7 -8 -5 8 -6 18 -4 22 8 12 10 10 11 -14z
m-117 0 c0 21 24 13 36 -13 7 -13 9 -24 5 -23 -27 3 -31 -3 -15 -27 14 -22 14
-26 1 -31 -10 -3 -14 -16 -11 -39 1 -19 -1 -37 -7 -40 -5 -4 -9 -3 -8 2 1 4 1
23 0 40 -1 31 -2 32 -26 21 -21 -9 -23 -14 -12 -26 10 -13 9 -15 -6 -9 -14 5
-17 3 -13 -11 8 -24 -9 -50 -18 -27 -5 13 4 39 26 77 1 2 -4 13 -11 26 -14 26
-2 55 18 43 10 -7 11 -13 2 -30 -7 -11 -8 -21 -4 -21 13 1 42 70 32 76 -5 3
-9 11 -9 17 0 7 4 6 10 -3 6 -10 10 -11 10 -2z m225 -32 c0 -15 -4 -21 -9 -16
-5 5 -6 16 -3 24 9 22 12 20 12 -8z m-150 -16 c3 -5 1 -10 -4 -10 -6 0 -11 5
-11 10 0 6 2 10 4 10 3 0 8 -4 11 -10z m108 -43 c-5 -8 -8 -7 -11 1 -2 7 -9 9
-14 6 -7 -4 -8 -2 -4 4 4 6 13 9 21 6 8 -4 12 -11 8 -17z m-196 -59 c-3 -7 -5
-2 -5 12 0 14 2 19 5 13 2 -7 2 -19 0 -25z m77 16 c5 -14 4 -15 -9 -4 -17 14
-19 20 -6 20 5 0 12 -7 15 -16z m45 -19 c5 2 6 -7 3 -21 -5 -30 -7 -28 -15 11
-4 17 -4 24 -1 17 3 -6 9 -10 13 -7z m-136 -30 c-3 -9 -8 -14 -10 -11 -3 3 -2
9 2 15 9 16 15 13 8 -4z m86 -8 c8 -10 7 -14 -2 -14 -8 0 -14 6 -14 14 0 7 1
13 2 13 2 0 8 -6 14 -13z m-129 -54 c-11 -17 -11 -17 -6 0 3 10 6 24 7 30 0 9
2 9 5 0 3 -7 0 -20 -6 -30z m57 10 c1 -19 -1 -22 -8 -12 -7 12 -9 12 -9 0 0
-8 -3 -12 -6 -9 -5 5 12 48 19 48 1 0 3 -12 4 -27z m-184 -47 c9 -7 17 -19 17
-26 0 -10 3 -10 15 0 12 10 13 16 4 26 -7 9 -8 14 -1 14 17 0 22 -29 7 -44 -8
-8 -11 -16 -6 -18 5 -2 2 -10 -7 -18 -14 -13 -15 -12 -9 3 3 9 2 19 -3 22 -6
4 -10 1 -10 -5 0 -6 -11 1 -24 17 -33 38 -21 58 17 29z m191 -48 c-9 -14 -23
2 -17 18 4 12 8 13 14 3 4 -7 5 -17 3 -21z m-127 -26 c0 -10 -9 -18 -18 -18
-17 0 -17 1 -1 18 21 21 21 21 19 0z m-57 -46 c0 -3 -4 -8 -10 -11 -5 -3 -10
-1 -10 4 0 6 5 11 10 11 6 0 10 -2 10 -4z m118 -21 c-3 -3 -9 2 -12 12 -6 14
-5 15 5 6 7 -7 10 -15 7 -18z m-76 -27 c-6 -6 -7 0 -4 19 5 21 7 23 10 9 2
-10 0 -22 -6 -28z m-196 17 c-4 -12 0 -14 22 -9 15 4 24 3 20 -1 -4 -5 -3 -14
4 -22 8 -10 8 -17 0 -25 -9 -9 -12 -7 -12 9 0 26 -11 35 -29 24 -10 -6 -9 -10
3 -14 20 -8 21 -27 1 -27 -8 0 -14 3 -14 8 1 4 0 9 -1 12 -6 16 -8 45 -4 52 9
14 16 9 10 -7z m226 -27 c-5 -7 -8 -28 -6 -47 2 -19 3 -32 1 -30 -1 2 -11 15
-22 29 -19 24 -19 24 -1 10 18 -14 19 -13 13 3 -6 17 12 61 22 52 2 -3 -1 -10
-7 -17z m-282 -52 c0 -8 -7 -19 -16 -26 -13 -12 -15 -10 -10 16 2 16 5 30 5
32 3 9 21 -11 21 -22z m190 10 c0 -3 -4 -8 -10 -11 -5 -3 -10 -1 -10 4 0 6 5
11 10 11 6 0 10 -2 10 -4z m-55 -56 c-3 -5 -12 -10 -18 -10 -7 0 -6 4 3 10 19
12 23 12 15 0z m40 -10 c10 -11 16 -20 13 -20 -3 0 -13 9 -23 20 -10 11 -16
20 -13 20 3 0 13 -9 23 -20z m-23 -42 c-8 -8 -9 -4 -5 13 4 13 8 18 11 10 2
-7 -1 -18 -6 -23z m55 3 c0 -11 -5 -18 -9 -15 -4 3 -5 11 -1 19 7 21 12 19 10
-4z m-140 -7 c-3 -3 -11 -6 -19 -8 -7 -1 -20 -6 -28 -11 -12 -7 -13 -6 -3 6 6
8 22 15 34 16 11 1 19 0 16 -3z m84 -51 c-12 -20 -14 -14 -5 12 4 9 9 14 11
11 3 -2 0 -13 -6 -23z m-299 -42 c-4 -24 35 -45 54 -30 6 5 11 4 11 -4 0 -16
-37 -20 -53 -6 -16 13 -8 -49 9 -71 10 -13 10 -13 -5 -2 -14 12 -17 10 -21
-10 -2 -13 -3 -6 -1 14 3 24 -1 42 -12 52 -10 10 -11 16 -4 16 8 0 11 12 8 35
-2 22 0 34 6 32 6 -2 10 -14 8 -26z m48 -22 c0 -6 -4 -7 -10 -4 -5 3 -10 11
-10 16 0 6 5 7 10 4 6 -3 10 -11 10 -16z m49 0 c-16 -10 -23 -4 -14 10 3 6 11
8 17 5 6 -4 5 -9 -3 -15z m28 -1 c-3 -8 -6 -5 -6 6 -1 11 2 17 5 13 3 -3 4
-12 1 -19z m35 0 c-7 -7 -12 -8 -12 -2 0 14 12 26 19 19 2 -3 -1 -11 -7 -17z
m68 -3 c-7 -9 -20 -13 -28 -10 -8 3 -21 0 -30 -7 -13 -12 -14 -11 -2 9 11 18
17 20 29 10 11 -9 16 -8 25 5 5 9 12 15 15 13 2 -3 -2 -12 -9 -20z m-180 -49
c0 -10 -30 0 -34 11 -4 11 -1 11 14 3 11 -6 20 -12 20 -14z m35 -15 c-6 -5
-25 10 -25 20 0 5 6 4 14 -3 8 -7 12 -15 11 -17z m52 -16 c0 -8 -4 -12 -9 -9
-5 3 -6 10 -3 15 9 13 12 11 12 -6z m-13 -43 c3 -5 -1 -9 -9 -9 -8 0 -12 4 -9
9 3 4 7 8 9 8 2 0 6 -4 9 -8z m-304 -23 c0 -18 -2 -20 -15 -9 -13 11 -13 15
-3 21 18 12 18 12 18 -12z m48 1 c9 7 9 7 2 -2 -17 -21 -40 -18 -40 5 1 20 2
21 14 5 8 -12 16 -14 24 -8z m46 6 c-21 -15 -30 -14 -19 3 3 6 14 11 23 11 13
0 13 -2 -4 -14z m73 -31 c0 -8 -4 -12 -9 -9 -5 3 -6 10 -3 15 9 13 12 11 12
-6z m-217 -35 c-8 -14 -8 -20 0 -20 6 0 4 -7 -5 -16 -9 -9 -14 -22 -11 -30 8
-20 -22 -40 -37 -25 -7 7 -7 12 -2 11 21 -5 31 1 32 18 2 38 18 82 29 82 3 0
0 -9 -6 -20z m287 -17 c-3 -10 -5 -4 -5 12 0 17 2 24 5 18 2 -7 2 -21 0 -30z
m-134 7 c3 -11 1 -18 -4 -14 -5 3 -9 12 -9 20 0 20 7 17 13 -6z m83 0 c0 -12
-4 -16 -9 -11 -5 5 -6 14 -3 20 10 15 12 14 12 -9z m-163 -25 c-3 -9 -8 -14
-10 -11 -3 3 -2 9 2 15 9 16 15 13 8 -4z m125 -20 c-3 -3 -9 2 -12 12 -6 14
-5 15 5 6 7 -7 10 -15 7 -18z m-130 -29 c-1 -14 -5 -23 -9 -20 -7 4 0 44 7 44
2 0 3 -11 2 -24z m47 -5 c3 -5 2 -12 -3 -15 -5 -3 -9 1 -9 9 0 17 3 19 12 6z
m-128 -33 c-3 -8 -6 -5 -6 6 -1 11 2 17 5 13 3 -3 4 -12 1 -19z m-56 -21 c-10
-9 -11 -8 -5 6 3 10 9 15 12 12 3 -3 0 -11 -7 -18z m39 9 c0 -3 -4 -8 -10 -11
-5 -3 -10 -1 -10 4 0 6 5 11 10 11 6 0 10 -2 10 -4z m-60 -20 c0 -3 -4 -8 -10
-11 -5 -3 -10 -1 -10 4 0 6 5 11 10 11 6 0 10 -2 10 -4z m193 -11 c-3 -9 -8
-14 -10 -11 -3 3 -2 9 2 15 9 16 15 13 8 -4z m-243 -31 c0 -8 -5 -12 -10 -9
-6 4 -8 11 -5 16 9 14 15 11 15 -7z m100 -49 c0 -5 -9 5 -20 23 -26 42 -26 56
0 17 11 -16 20 -34 20 -40z m56 18 c-10 -11 -19 -7 -22 10 -2 15 0 16 12 6 8
-6 12 -14 10 -16z m-256 -15 c0 -5 -9 -4 -20 2 -11 6 -20 12 -20 14 0 2 9 2
20 -1 11 -3 20 -9 20 -15z m-147 -27 c5 0 5 -5 2 -11 -3 -5 0 -10 7 -10 8 0 6
-6 -6 -17 -15 -14 -19 -15 -23 -4 -5 11 -7 11 -14 0 -7 -11 -9 -10 -9 4 0 20
11 22 28 5 7 -7 12 -8 12 -2 0 17 -15 29 -39 32 -17 1 -22 -2 -18 -13 4 -8 1
-17 -5 -21 -7 -4 -6 -9 3 -15 10 -6 8 -8 -7 -7 -16 2 -20 6 -14 18 5 8 11 23
14 32 5 16 14 17 69 9z m338 -8 c13 -16 12 -17 -3 -4 -10 7 -18 15 -18 17 0 8
8 3 21 -13z m-291 -23 c0 -5 -2 -10 -4 -10 -3 0 -8 5 -11 10 -3 6 -1 10 4 10
6 0 11 -4 11 -10z m157 -32 c-3 -8 -6 -5 -6 6 -1 11 2 17 5 13 3 -3 4 -12 1
-19z m-439 -5 c0 -10 3 -26 7 -35 4 -11 3 -18 -4 -18 -6 0 -10 5 -8 11 1 6 -4
14 -12 17 -10 3 -12 0 -8 -12 4 -9 2 -16 -3 -16 -6 0 -10 6 -10 14 0 8 -4 18
-10 21 -6 4 -7 -1 -4 -12 5 -15 4 -16 -6 -3 -8 11 -13 12 -17 3 -8 -20 -4 -28
13 -28 9 0 20 -10 25 -23 6 -15 5 -21 -1 -17 -6 3 -10 13 -10 21 0 9 -6 14
-12 11 -7 -2 -12 -13 -10 -23 2 -16 1 -17 -7 -4 -6 9 -11 10 -11 3 0 -8 -6 -8
-24 0 -25 12 -28 38 -6 45 9 3 11 -1 7 -11 -8 -20 11 -33 26 -18 8 8 8 11 0
11 -6 0 -10 11 -9 24 0 13 4 22 8 20 4 -2 10 1 13 7 4 5 13 8 20 5 7 -2 16 2
19 10 8 20 35 18 34 -3z m302 7 c-8 -5 -19 -10 -25 -10 -5 0 -3 5 5 10 8 5 20
10 25 10 6 0 3 -5 -5 -10z m-173 -27 c-4 -3 -1 -13 6 -22 11 -14 10 -14 -5 -2
-16 12 -16 31 -1 31 4 0 3 -3 0 -7z m48 -21 c-3 -3 -11 0 -18 7 -9 10 -8 11 6
5 10 -3 15 -9 12 -12z m190 -10 c-3 -3 -11 0 -18 7 -9 10 -8 11 6 5 10 -3 15
-9 12 -12z m-290 -62 c-3 -5 -12 -10 -18 -10 -7 0 -6 4 3 10 19 12 23 12 15 0z
m-147 -14 c-7 -8 -15 -12 -17 -11 -5 6 10 25 20 25 5 0 4 -6 -3 -14z m-268 -6
c0 -5 -2 -10 -4 -10 -3 0 -8 5 -11 10 -3 6 -1 10 4 10 6 0 11 -4 11 -10z m111
-17 c13 -16 12 -17 -3 -4 -17 13 -22 21 -14 21 2 0 10 -8 17 -17z m59 13 c0
-3 -4 -8 -10 -11 -5 -3 -10 -1 -10 4 0 6 5 11 10 11 6 0 10 -2 10 -4z m143
-11 c4 -8 3 -16 -1 -19 -4 -3 -9 4 -9 15 -2 23 3 25 10 4z m234 -7 c-3 -8 -6
-5 -6 6 -1 11 2 17 5 13 3 -3 4 -12 1 -19z m-550 -23 c-4 -8 -2 -17 3 -20 4
-3 10 1 13 7 2 7 4 -1 3 -19 -1 -30 -16 -37 -16 -7 0 8 -7 14 -16 14 -13 0
-14 3 -5 13 6 8 8 17 4 20 -3 4 -1 7 6 7 7 0 11 -7 8 -15z m215 7 c-6 -5 -19
-17 -28 -28 -8 -10 -12 -12 -8 -4 12 26 26 40 38 40 7 0 7 -3 -2 -8z m19 -29
c13 -16 12 -17 -3 -4 -10 7 -18 15 -18 17 0 8 8 3 21 -13z m-140 -16 c-10 -9
-11 -8 -5 6 3 10 9 15 12 12 3 -3 0 -11 -7 -18z m-176 -7 c-3 -5 -12 -10 -18
-10 -7 0 -6 4 3 10 19 12 23 12 15 0z m240 -18 c-3 -3 -11 0 -18 7 -9 10 -8
11 6 5 10 -3 15 -9 12 -12z m-40 -2 c3 -6 -1 -7 -9 -4 -18 7 -21 14 -7 14 6 0
13 -4 16 -10z m-107 -25 c-3 -3 -9 2 -12 12 -6 14 -5 15 5 6 7 -7 10 -15 7
-18z m-73 -35 c-3 -5 -12 -10 -18 -10 -7 0 -6 4 3 10 19 12 23 12 15 0z m-94
-23 c-10 -9 -11 -8 -5 6 3 10 9 15 12 12 3 -3 0 -11 -7 -18z m54 4 c-3 -6 -11
-11 -16 -11 -5 0 -4 6 3 14 14 16 24 13 13 -3z m-157 -45 c-7 -8 -15 -12 -17
-11 -5 6 10 25 20 25 5 0 4 -6 -3 -14z m63 -3 c13 -16 12 -17 -3 -4 -17 13
-22 21 -14 21 2 0 10 -8 17 -17z m-36 -12 c-3 -6 -11 -11 -16 -11 -5 0 -4 6 3
14 14 16 24 13 13 -3z m-93 -14 c-7 -8 -10 -17 -7 -20 3 -4 2 -5 -2 -2 -3 3
-16 -3 -27 -12 -11 -10 -7 -2 9 18 17 20 32 34 34 33 2 -2 -1 -10 -7 -17z
m-287 3 c-3 -5 -2 -10 4 -10 5 0 12 4 16 10 10 16 43 -23 34 -41 -5 -9 -5 -20
-1 -24 4 -5 2 -5 -5 -2 -6 4 -14 1 -16 -5 -4 -9 -6 -10 -6 -1 -1 6 4 15 9 18
21 13 10 35 -18 35 -23 0 -28 -5 -30 -27 -3 -40 -12 -41 -12 -2 0 19 5 40 12
47 15 15 21 16 13 2z m249 -5 c-4 -8 -11 -15 -16 -15 -6 0 -5 6 2 15 7 8 14
15 16 15 2 0 1 -7 -2 -15z m-290 -46 c-3 -5 -10 -7 -15 -4 -5 4 -7 -10 -4 -34
3 -22 1 -42 -4 -45 -5 -3 -7 3 -4 14 3 11 0 20 -6 20 -6 0 -12 -8 -12 -17 -1
-17 -2 -17 -6 0 -4 15 -7 16 -21 5 -15 -12 -16 -11 -3 5 8 9 10 21 6 25 -4 4
-10 1 -12 -6 -3 -7 -11 -19 -19 -26 -17 -17 -19 -30 -2 -20 7 4 8 3 4 -5 -4
-6 -11 -9 -16 -6 -12 7 -7 60 5 60 15 1 85 36 91 46 3 5 10 7 15 3 5 -3 7 -10
3 -15z m76 16 c0 -2 -10 -10 -22 -16 -21 -11 -22 -11 -9 4 13 16 31 23 31 12z
m-51 -79 c-3 -3 -11 5 -18 17 -13 21 -12 21 5 5 10 -10 16 -20 13 -22z m81 9
c14 -19 14 -19 -2 -6 -10 7 -18 18 -18 24 0 6 1 8 3 6 1 -2 9 -13 17 -24z
m-153 -55 c1 -16 -1 -17 -12 -7 -11 10 -8 19 10 27 1 0 1 -9 2 -20z m-90 -22
c-3 -8 -6 -5 -6 6 -1 11 2 17 5 13 3 -3 4 -12 1 -19z m-27 8 c0 -3 -4 -8 -10
-11 -5 -3 -10 -1 -10 4 0 6 5 11 10 11 6 0 10 -2 10 -4z m-205 -56 c-10 -11
-22 -20 -28 -20 -5 0 1 9 14 20 31 25 37 25 14 0z m32 -2 c-3 -8 -6 -5 -6 6
-1 11 2 17 5 13 3 -3 4 -12 1 -19z m-174 -45 c-7 -2 -19 -2 -25 0 -7 3 -2 5
12 5 14 0 19 -2 13 -5z m-103 -38 c-10 -19 -16 -22 -22 -13 -4 7 -8 18 -8 23
0 6 5 3 10 -5 8 -12 11 -11 16 8 4 12 9 20 12 17 3 -3 -1 -16 -8 -30z m110 0
c10 -14 10 -17 1 -8 -7 6 -21 9 -29 5 -14 -5 -15 -4 -2 10 8 9 15 15 15 14 1
0 7 -10 15 -21z m-89 -18 c-10 -9 -11 -8 -5 6 3 10 9 15 12 12 3 -3 0 -11 -7
-18z m-127 -25 c-29 -28 -46 -34 -26 -9 7 8 8 18 4 22 -4 5 -2 6 3 2 6 -3 17
-2 25 4 25 15 24 10 -6 -19z m-137 -1 c1 -11 -6 -26 -15 -33 -13 -11 -14 -11
-7 2 5 8 8 23 7 33 -2 9 1 17 5 17 5 0 9 -9 10 -19z m173 5 c0 -2 -8 -10 -17
-17 -16 -13 -17 -12 -4 4 13 16 21 21 21 13z m35 -16 c-3 -5 -12 -10 -18 -10
-7 0 -6 4 3 10 19 12 23 12 15 0z m-455 -42 c0 -5 -16 -5 -38 1 -1 1 3 7 10
15 12 13 27 5 28 -16z m287 -10 c-3 -7 -5 -2 -5 12 0 14 2 19 5 13 2 -7 2 -19
0 -25z m58 10 c5 4 5 1 1 -6 -6 -10 -11 -10 -22 -1 -8 6 -14 14 -14 16 0 3 6
0 13 -6 8 -6 18 -7 22 -3z m-104 -25 c13 -16 12 -17 -3 -4 -17 13 -22 21 -14
21 2 0 10 -8 17 -17z m-130 -16 c-10 -9 -11 -8 -5 6 3 10 9 15 12 12 3 -3 0
-11 -7 -18z m71 -2 c-2 -14 -8 -28 -13 -31 -5 -3 -7 2 -4 10 3 9 7 23 10 31 7
24 13 17 7 -10z m-235 -7 c-3 -8 -6 -5 -6 6 -1 11 2 17 5 13 3 -3 4 -12 1 -19z
m28 -30 c-7 -32 -13 -32 -11 1 0 16 4 27 8 25 4 -2 5 -14 3 -26z m159 16 c3
-8 2 -12 -4 -9 -6 3 -10 10 -10 16 0 14 7 11 14 -7z m-197 -10 c-3 -3 -2 -17
3 -30 5 -13 7 -24 4 -24 -2 0 -8 10 -13 23 -8 22 -6 37 6 37 4 0 4 -3 0 -6z
m126 -9 c-3 -9 -8 -14 -10 -11 -3 3 -2 9 2 15 9 16 15 13 8 -4z m-431 -47 c-6
-6 -12 -6 -16 1 -4 6 -3 11 3 11 6 0 8 8 5 18 -5 15 -4 15 6 -1 8 -13 9 -22 2
-29z m70 5 c-10 -4 -10 -8 0 -21 12 -15 11 -16 -4 -3 -19 14 -15 32 5 30 8 0
8 -2 -1 -6z m-31 -20 c13 -16 12 -17 -3 -4 -17 13 -22 21 -14 21 2 0 10 -8 17
-17z m96 2 c0 -8 -4 -12 -9 -9 -5 3 -6 10 -3 15 9 13 12 11 12 -6z m-107 -48
c0 -7 -4 -6 -10 3 -8 12 -10 12 -10 1 0 -8 -3 -12 -6 -8 -9 9 6 28 17 22 5 -4
9 -12 9 -18z m-360 -7 c0 -5 -4 -10 -10 -10 -5 0 -10 5 -10 10 0 6 5 10 10 10
6 0 10 -4 10 -10z m83 -4 c4 -10 1 -13 -8 -9 -8 3 -12 9 -9 14 7 12 11 11 17
-5z m-78 -35 c3 -5 2 -12 -3 -15 -5 -3 -9 1 -9 9 0 17 3 19 12 6z m116 -4 c-6
-8 -7 -18 -3 -23 4 -4 -1 -2 -10 5 -19 14 -25 26 -9 16 5 -3 12 -1 16 5 3 5 9
10 12 10 3 0 0 -6 -6 -13z m-65 -23 c1 -9 0 -13 -4 -10 -3 4 -7 14 -8 22 -1 9
0 13 4 10 3 -4 7 -14 8 -22z m128 18 c-5 -4 -12 -11 -15 -15 -3 -5 -9 -2 -12
5 -3 9 3 14 15 15 11 1 16 -1 12 -5z m-484 -51 c7 -15 7 -22 -2 -27 -7 -4 -10
-4 -6 1 4 4 3 16 -3 26 -5 11 -7 19 -5 19 3 0 10 -9 16 -19z m194 -2 c-3 -5
-10 -7 -15 -3 -5 3 -7 10 -3 15 3 5 10 7 15 3 5 -3 7 -10 3 -15z m-347 -60
c-6 -10 -13 -16 -16 -14 -2 3 2 11 8 19 8 10 9 16 1 21 -6 4 -15 -7 -21 -25
-6 -17 -13 -29 -15 -27 -3 2 -1 15 4 28 6 14 6 34 0 49 -9 25 -9 25 21 -4 25
-24 28 -31 18 -47z m320 9 c-3 -7 -5 -2 -5 12 0 14 2 19 5 13 2 -7 2 -19 0
-25z m-397 3 c7 -15 7 -22 -2 -27 -7 -4 -10 -4 -6 1 4 4 3 16 -3 26 -5 11 -7
19 -5 19 3 0 10 -9 16 -19z m221 -14 c-10 -9 -11 -8 -5 6 3 10 9 15 12 12 3
-3 0 -11 -7 -18z m-48 -12 c-3 -9 -8 -14 -10 -11 -3 3 -2 9 2 15 9 16 15 13 8
-4z m-1330 -200 c4 -8 3 -16 -1 -19 -4 -3 -9 4 -9 15 -2 23 3 25 10 4z m-209
-43 c-1 -2 -11 1 -21 7 -10 6 -12 11 -5 11 6 0 12 8 13 18 1 11 4 8 8 -8 4
-14 7 -27 5 -28z m79 3 c-3 -9 -8 -14 -10 -11 -3 3 -2 9 2 15 9 16 15 13 8 -4z
m63 -7 c4 -7 3 -8 -4 -4 -7 4 -12 2 -12 -5 0 -7 -3 -10 -6 -6 -6 5 3 27 11 27
2 0 7 -5 11 -12z m-89 -20 c2 -18 0 -20 -7 -8 -12 18 -13 30 -2 30 4 0 9 -10
9 -22z m-471 -34 c-3 -8 -11 -14 -18 -14 -9 0 -9 3 0 12 7 7 13 21 13 33 1 17
2 18 6 2 3 -10 2 -25 -1 -33z m415 29 c13 -16 12 -17 -3 -5 -9 8 -23 10 -29 6
-8 -4 -9 -3 -5 4 10 17 21 15 37 -5z m-58 -14 c-8 -8 -13 -7 -18 2 -5 8 -4 10
3 5 7 -4 12 -2 12 5 0 7 3 9 7 6 4 -4 2 -12 -4 -18z m164 -1 c-3 -8 -6 -5 -6
6 -1 11 2 17 5 13 3 -3 4 -12 1 -19z m-209 -29 c-3 -20 -5 -19 -9 9 -3 20 -2
29 4 23 5 -5 7 -19 5 -32z m-300 -25 c-4 -11 -28 -14 -28 -4 0 8 22 20 28 14
2 -1 2 -6 0 -10z m-67 -17 c-10 -9 -11 -8 -5 6 3 10 9 15 12 12 3 -3 0 -11 -7
-18z m123 5 c2 -4 -5 -9 -17 -9 -17 -2 -19 0 -7 7 18 12 18 12 24 2z m-766
-41 c-2 -9 2 -15 8 -14 6 1 11 -4 11 -11 0 -8 -7 -13 -16 -11 -11 1 -15 11
-14 29 1 18 -3 26 -14 26 -10 0 -13 -5 -8 -17 5 -14 4 -15 -6 -6 -10 10 -9 15
1 28 15 18 42 2 38 -24z m-502 11 c2 -20 17 -40 27 -38 7 1 9 1 5 -1 -5 -3 -4
-13 2 -22 6 -13 5 -18 -5 -18 -8 0 -12 4 -9 8 3 5 -3 20 -13 35 -17 27 -28 62
-15 49 4 -4 7 -10 8 -13z m1092 -7 c-3 -3 -9 2 -12 12 -6 14 -5 15 5 6 7 -7
10 -15 7 -18z m-1209 8 c0 -5 -4 -17 -9 -28 -8 -18 -9 -17 -9 8 -1 15 4 27 9
27 6 0 10 -3 9 -7z m807 -34 c-9 -13 -16 -18 -16 -12 0 7 5 15 11 18 6 4 8 14
4 24 -5 12 -3 13 6 4 9 -9 8 -17 -5 -34z m57 20 c3 -9 0 -23 -5 -30 -8 -11 -8
-10 -4 4 3 11 0 20 -9 23 -19 8 -19 21 -1 21 8 0 17 -8 19 -18z m-80 3 c4 9 6
9 6 1 2 -20 -16 -24 -30 -5 -13 15 -12 16 3 4 13 -10 17 -10 21 0z m114 -14
c-3 -8 -6 -5 -6 6 -1 11 2 17 5 13 3 -3 4 -12 1 -19z m-810 5 c-4 -3 1 -12 11
-19 14 -10 15 -15 4 -26 -11 -11 -12 -10 -7 5 5 12 2 17 -9 17 -9 0 -16 4 -16
8 0 10 11 22 18 22 3 0 2 -3 -1 -7z m608 -13 c-3 -5 -12 -10 -18 -10 -7 0 -6
4 3 10 19 12 23 12 15 0z m55 6 c0 -2 -7 -7 -16 -10 -8 -3 -12 -2 -9 4 6 10
25 14 25 6z m-893 -48 c-3 -8 -6 -5 -6 6 -1 11 2 17 5 13 3 -3 4 -12 1 -19z
m176 7 c-3 -9 -8 -14 -10 -11 -3 3 -2 9 2 15 9 16 15 13 8 -4z m375 2 c18 6
17 5 -8 -14 -13 -10 -16 -8 -17 10 0 12 1 17 4 10 2 -7 12 -9 21 -6z m365 -2
c-3 -9 -8 -14 -10 -11 -3 3 -2 9 2 15 9 16 15 13 8 -4z m-1033 -30 c0 -5 -5
-3 -10 5 -5 8 -10 20 -10 25 0 6 5 3 10 -5 5 -8 10 -19 10 -25z m94 20 c-4 -8
-8 -15 -10 -15 -2 0 -4 7 -4 15 0 8 4 15 10 15 5 0 7 -7 4 -15z m466 5 c0 -5
-2 -10 -4 -10 -3 0 -8 5 -11 10 -3 6 -1 10 4 10 6 0 11 -4 11 -10z m340 -15
c0 -2 -6 -5 -13 -8 -8 -3 -14 1 -14 8 0 7 6 11 14 8 7 -3 13 -6 13 -8z m-85
-4 c3 -5 2 -12 -3 -15 -5 -3 -9 1 -9 9 0 17 3 19 12 6z m-275 -7 c0 -8 -19
-13 -24 -6 -3 5 1 9 9 9 8 0 15 -2 15 -3z m41 -47 c-10 -9 -11 -8 -5 6 3 10 9
15 12 12 3 -3 0 -11 -7 -18z"/>
<path d="M8780 8070 c0 -5 9 -15 21 -23 14 -10 16 -16 8 -19 -9 -3 -10 -6 -2
-11 22 -14 20 20 -3 40 -13 12 -24 18 -24 13z"/>
<path d="M8340 7170 c-9 -6 -10 -10 -3 -10 6 0 15 5 18 10 8 12 4 12 -15 0z"/>
<path d="M8269 7135 c-4 -15 -7 -23 -22 -57 -9 -20 -20 -38 -24 -40 -5 -3 -1
-3 7 0 20 5 43 10 55 11 6 1 3 6 -5 11 -8 5 -10 10 -5 10 6 0 3 5 -5 10 -13 9
-12 12 4 25 11 8 14 15 7 15 -7 0 -9 5 -6 10 3 6 4 10 1 10 -3 0 -7 -2 -7 -5z
m-5 -71 c3 -8 2 -12 -4 -9 -6 3 -10 10 -10 16 0 14 7 11 14 -7z"/>
<path d="M8047 6840 c10 -11 19 -20 21 -20 1 0 -2 9 -8 20 -6 11 -15 20 -20
20 -6 0 -2 -9 7 -20z"/>
<path d="M6826 5853 c-6 -14 -5 -15 5 -6 7 7 10 15 7 18 -3 3 -9 -2 -12 -12z"/>
<path d="M5819 5408 c0 -2 -2 -11 -4 -21 -3 -15 -1 -16 11 -6 7 6 11 15 8 20
-5 9 -13 12 -15 7z"/>
<path d="M8691 8134 c0 -11 3 -14 6 -6 3 7 2 16 -1 19 -3 4 -6 -2 -5 -13z"/>
<path d="M8785 8140 c-8 -14 9 -34 23 -29 7 3 6 11 -3 22 -9 13 -15 15 -20 7z"/>
<path d="M8670 8080 c-8 -5 -12 -12 -9 -15 4 -3 12 1 19 10 14 17 11 19 -10 5z"/>
<path d="M8700 8071 c0 -6 4 -13 10 -16 6 -3 7 1 4 9 -7 18 -14 21 -14 7z"/>
<path d="M8625 8060 c-3 -5 -1 -10 4 -10 6 0 11 5 11 10 0 6 -2 10 -4 10 -3 0
-8 -4 -11 -10z"/>
<path d="M8651 8024 c0 -11 3 -14 6 -6 3 7 2 16 -1 19 -3 4 -6 -2 -5 -13z"/>
<path d="M8585 7970 c3 -5 8 -10 11 -10 2 0 4 5 4 10 0 6 -5 10 -11 10 -5 0
-7 -4 -4 -10z"/>
<path d="M8616 7952 c-3 -6 3 -12 14 -15 20 -5 38 9 26 20 -3 4 -6 1 -6 -7 0
-10 -3 -10 -14 -1 -8 7 -17 8 -20 3z"/>
<path d="M8604 7919 c-3 -6 -3 -13 0 -16 3 -4 6 -1 6 6 0 7 5 9 10 6 6 -4 7
-11 4 -17 -4 -7 -2 -8 4 -4 7 4 12 11 12 16 0 13 -29 20 -36 9z"/>
<path d="M8560 7916 c0 -2 7 -9 15 -16 13 -11 14 -10 9 4 -5 14 -24 23 -24 12z"/>
<path d="M8570 7870 c-9 -6 -10 -10 -3 -10 6 0 15 5 18 10 8 12 4 12 -15 0z"/>
<path d="M8600 7865 c-7 -9 -11 -17 -9 -20 3 -2 10 5 17 15 14 24 10 26 -8 5z"/>
<path d="M8516 7785 c4 -8 8 -15 10 -15 2 0 4 7 4 15 0 8 -4 15 -10 15 -5 0
-7 -7 -4 -15z"/>
<path d="M8534 7759 c-4 -8 -3 -9 4 -5 7 4 12 1 12 -8 0 -8 4 -17 9 -20 5 -4
7 3 4 14 -7 26 -19 34 -29 19z"/>
<path d="M8653 7755 c0 -8 4 -12 9 -9 5 3 6 10 3 15 -9 13 -12 11 -12 -6z"/>
<path d="M8606 7718 c-5 -20 -8 -21 -17 -8 -9 13 -10 12 -5 -3 3 -10 0 -20 -8
-23 -7 -3 -13 -12 -13 -21 0 -12 6 -9 21 10 16 19 27 24 46 20 21 -4 26 0 27
19 2 20 1 21 -8 6 -6 -10 -15 -18 -22 -18 -9 0 -8 3 1 9 10 6 10 10 -1 20 -12
9 -16 7 -21 -11z"/>
<path d="M8534 7664 c0 -19 1 -32 4 -29 8 7 11 55 4 59 -4 2 -7 -11 -8 -30z"/>
<path d="M8490 7676 c0 -2 7 -9 15 -16 9 -7 15 -8 15 -2 0 5 -7 12 -15 16 -8
3 -15 4 -15 2z"/>
<path d="M8430 7660 c0 -4 7 -7 15 -6 23 3 26 12 5 13 -11 1 -20 -2 -20 -7z"/>
<path d="M8433 7607 c-2 -17 0 -18 7 -7 8 12 10 12 16 -3 7 -20 24 -13 23 11
0 11 -2 13 -6 4 -4 -11 -9 -10 -22 2 -15 14 -17 13 -18 -7z"/>
<path d="M8537 7601 c3 -10 0 -28 -5 -38 -13 -24 0 -50 15 -31 11 14 5 88 -7
88 -5 0 -6 -9 -3 -19z"/>
<path d="M8426 7567 c3 -10 9 -15 12 -12 3 3 0 11 -7 18 -10 9 -11 8 -5 -6z"/>
<path d="M8396 7504 c-5 -14 -4 -15 9 -4 17 14 19 20 6 20 -5 0 -12 -7 -15
-16z"/>
<path d="M8361 7493 c-1 -27 10 -35 29 -21 12 8 12 9 -2 4 -12 -3 -18 2 -21
17 l-4 22 -2 -22z"/>
<path d="M8335 7440 c-3 -5 -1 -10 4 -10 6 0 11 5 11 10 0 6 -2 10 -4 10 -3 0
-8 -4 -11 -10z"/>
<path d="M8355 7419 c-4 -6 -5 -12 -2 -15 2 -3 7 2 10 11 7 17 1 20 -8 4z"/>
<path d="M8300 7381 c0 -7 -5 -9 -12 -5 -6 4 -8 3 -4 -4 3 -5 0 -13 -6 -15 -8
-4 -9 -6 -2 -6 15 -1 39 28 30 36 -3 3 -6 1 -6 -6z"/>
<path d="M8233 7298 c3 -9 1 -18 -6 -21 -6 -2 -4 -6 5 -10 13 -4 16 -1 13 15
-3 11 -7 23 -11 27 -4 3 -4 -2 -1 -11z"/>
<path d="M8261 7254 c0 -11 3 -14 6 -6 3 7 2 16 -1 19 -3 4 -6 -2 -5 -13z"/>
<path d="M8137 7125 c-4 -8 -3 -16 1 -19 4 -3 9 4 9 15 2 23 -3 25 -10 4z"/>
<path d="M8114 7085 c-4 -8 -11 -12 -17 -8 -6 3 -7 1 -3 -5 10 -16 14 -15 26
8 6 11 8 20 5 20 -3 0 -8 -7 -11 -15z"/>
<path d="M8127 7065 c-4 -8 -3 -16 1 -19 4 -3 9 4 9 15 2 23 -3 25 -10 4z"/>
<path d="M8155 7060 c-3 -5 1 -10 10 -10 9 0 13 5 10 10 -3 6 -8 10 -10 10 -2
0 -7 -4 -10 -10z"/>
<path d="M8075 7029 c-4 -6 -5 -12 -2 -15 2 -3 7 2 10 11 7 17 1 20 -8 4z"/>
<path d="M8045 6990 c3 -5 8 -10 11 -10 2 0 4 5 4 10 0 6 -5 10 -11 10 -5 0
-7 -4 -4 -10z"/>
<path d="M8014 6938 l-19 -23 23 19 c21 18 27 26 19 26 -2 0 -12 -10 -23 -22z"/>
<path d="M8056 6925 c8 -37 14 -45 14 -19 0 10 -5 26 -10 34 -8 11 -9 7 -4
-15z"/>
<path d="M7964 6916 c1 -8 5 -18 8 -22 4 -3 5 1 4 10 -1 8 -5 18 -8 22 -4 3
-5 -1 -4 -10z"/>
<path d="M8035 6910 c3 -5 8 -10 11 -10 2 0 4 5 4 10 0 6 -5 10 -11 10 -5 0
-7 -4 -4 -10z"/>
<path d="M7970 6875 c0 -7 30 -13 34 -7 3 4 -4 9 -15 9 -10 1 -19 0 -19 -2z"/>
<path d="M7890 6831 c0 -6 4 -13 10 -16 6 -3 7 1 4 9 -7 18 -14 21 -14 7z"/>
<path d="M7941 6783 c-1 -27 -20 -40 -32 -22 -6 10 -9 10 -9 2 0 -7 10 -17 21
-24 13 -6 19 -7 15 -1 -3 6 -1 12 5 14 6 2 9 15 6 28 -4 23 -4 23 -6 3z"/>
<path d="M7880 6740 c0 -5 5 -10 11 -10 5 0 7 5 4 10 -3 6 -8 10 -11 10 -2 0
-4 -4 -4 -10z"/>
<path d="M7955 6741 c-3 -5 -1 -12 5 -16 5 -3 10 0 10 7 1 9 5 7 14 -5 12 -16
14 -16 20 -1 3 8 6 18 6 20 0 8 -49 4 -55 -5z"/>
<path d="M7850 6726 c0 -2 8 -10 18 -17 15 -13 16 -12 3 4 -13 16 -21 21 -21
13z"/>
<path d="M7780 6660 c0 -4 7 -7 15 -6 23 3 26 12 5 13 -11 1 -20 -2 -20 -7z"/>
<path d="M7750 6636 c0 -2 7 -7 16 -10 8 -3 12 -2 9 4 -6 10 -25 14 -25 6z"/>
<path d="M7735 6602 c-6 -4 -16 -19 -24 -34 -8 -15 -19 -25 -24 -21 -6 3 -7 1
-3 -5 10 -17 10 -16 40 28 27 41 28 45 11 32z"/>
<path d="M7767 6595 c-4 -8 -2 -17 3 -20 5 -3 7 -13 4 -23 -5 -14 -4 -15 5 -2
11 15 15 8 12 -22 -2 -19 15 -33 24 -18 3 5 1 10 -4 10 -6 0 -2 9 10 21 20 20
20 21 2 34 -10 7 -20 11 -23 9 -2 -3 0 -8 5 -12 6 -4 11 -14 13 -22 3 -10 -5
-7 -21 9 -14 13 -23 29 -20 37 3 8 3 14 0 14 -3 0 -7 -7 -10 -15z"/>
<path d="M7860 6580 c0 -5 4 -10 9 -10 6 0 13 5 16 10 3 6 -1 10 -9 10 -9 0
-16 -4 -16 -10z"/>
<path d="M7700 6520 c-9 -6 -10 -10 -3 -10 6 0 15 5 18 10 8 12 4 12 -15 0z"/>
<path d="M7660 6505 c-7 -9 -11 -17 -9 -20 3 -2 10 5 17 15 14 24 10 26 -8 5z"/>
<path d="M7617 6499 c7 -7 15 -10 18 -7 3 3 -2 9 -12 12 -14 6 -15 5 -6 -5z"/>
<path d="M7666 6475 c-9 -14 -13 -25 -10 -25 4 0 -1 -9 -10 -19 -10 -11 -13
-22 -8 -25 11 -7 11 -24 -1 -43 -5 -7 -5 -19 -1 -25 6 -9 10 -5 15 12 7 25 7
25 8 2 1 -14 5 -20 12 -17 7 5 5 15 -5 30 -10 16 -12 26 -5 30 5 4 8 19 5 35
-3 19 2 35 15 49 11 12 16 21 11 21 -6 0 -17 -11 -26 -25z m-9 -67 c-3 -8 -6
-5 -6 6 -1 11 2 17 5 13 3 -3 4 -12 1 -19z"/>
<path d="M7594 6435 c-4 -8 -11 -12 -17 -8 -6 3 -7 1 -3 -5 10 -16 14 -15 26
8 6 11 8 20 5 20 -3 0 -8 -7 -11 -15z"/>
<path d="M7515 6370 c3 -5 8 -10 11 -10 2 0 4 5 4 10 0 6 -5 10 -11 10 -5 0
-7 -4 -4 -10z"/>
<path d="M7465 6300 c21 -24 26 -25 19 -6 -3 8 -13 17 -22 21 -13 5 -13 2 3
-15z"/>
<path d="M7383 6255 c0 -8 4 -12 9 -9 4 3 8 9 8 15 0 5 -4 9 -8 9 -5 0 -9 -7
-9 -15z"/>
<path d="M7415 6259 c-4 -6 -5 -12 -2 -15 2 -3 7 2 10 11 7 17 1 20 -8 4z"/>
<path d="M7440 6256 c0 -2 8 -10 18 -17 15 -13 16 -12 3 4 -13 16 -21 21 -21
13z"/>
<path d="M7273 6185 c0 -8 4 -12 9 -9 5 3 6 10 3 15 -9 13 -12 11 -12 -6z"/>
<path d="M7250 6171 c0 -6 4 -13 10 -16 6 -3 7 1 4 9 -7 18 -14 21 -14 7z"/>
<path d="M7276 6144 c-5 -14 -4 -15 9 -4 17 14 19 20 6 20 -5 0 -12 -7 -15
-16z"/>
<path d="M7239 6133 c-1 -10 0 -30 1 -45 1 -16 -4 -28 -10 -28 -6 0 -9 -4 -6
-9 7 -11 -17 -21 -49 -21 -28 0 -41 -15 -21 -23 8 -3 17 -1 20 6 3 9 8 8 15
-3 8 -12 11 -12 11 -1 0 11 3 11 18 0 9 -7 14 -9 9 -4 -4 4 0 18 8 31 8 12 14
43 13 68 -1 45 -7 64 -9 29z"/>
<path d="M7185 6081 c-7 -24 0 -41 18 -40 9 0 8 2 -1 6 -8 3 -5 11 10 25 13
11 17 16 9 12 -7 -3 -17 -1 -21 6 -6 9 -10 7 -15 -9z"/>
<path d="M7116 6081 c-4 -5 -3 -16 0 -25 3 -9 2 -16 -4 -16 -5 0 -13 -7 -16
-16 -5 -14 -4 -15 9 -4 15 12 21 4 16 -23 -1 -4 6 -10 14 -13 8 -3 12 -10 9
-15 -3 -5 -1 -9 5 -9 21 0 22 22 3 36 -12 8 -21 22 -21 32 -2 32 -5 62 -8 62
-1 0 -4 -4 -7 -9z"/>
<path d="M7035 6060 c-3 -5 -1 -10 4 -10 6 0 11 5 11 10 0 6 -2 10 -4 10 -3 0
-8 -4 -11 -10z"/>
<path d="M7271 6061 c-10 -6 -9 -10 3 -14 8 -3 18 -2 21 3 8 13 -9 20 -24 11z"/>
<path d="M7147 6049 c7 -7 15 -10 18 -7 3 3 -2 9 -12 12 -14 6 -15 5 -6 -5z"/>
<path d="M6970 6046 c0 -2 7 -7 16 -10 8 -3 12 -2 9 4 -6 10 -25 14 -25 6z"/>
<path d="M7010 6036 c0 -2 8 -10 18 -17 15 -13 16 -12 3 4 -13 16 -21 21 -21
13z"/>
<path d="M7094 5991 c4 -5 1 -11 -6 -13 -8 -3 -6 -7 5 -11 12 -5 17 -1 17 13
0 11 -5 20 -11 20 -5 0 -8 -4 -5 -9z"/>
<path d="M6913 5945 c0 -8 4 -15 9 -15 4 0 8 4 8 9 0 6 -4 12 -8 15 -5 3 -9
-1 -9 -9z"/>
<path d="M6855 5930 c3 -5 8 -10 11 -10 2 0 4 5 4 10 0 6 -5 10 -11 10 -5 0
-7 -4 -4 -10z"/>
<path d="M6736 5897 c3 -10 9 -15 12 -12 3 3 0 11 -7 18 -10 9 -11 8 -5 -6z"/>
<path d="M6805 5901 c-3 -5 -1 -12 5 -16 5 -3 10 1 10 9 0 18 -6 21 -15 7z"/>
<path d="M6935 5870 c-3 -5 -1 -10 4 -10 6 0 11 5 11 10 0 6 -2 10 -4 10 -3 0
-8 -4 -11 -10z"/>
<path d="M6695 5849 c-4 -6 -5 -12 -2 -15 2 -3 7 2 10 11 7 17 1 20 -8 4z"/>
<path d="M6650 5785 c0 -9 6 -12 17 -8 10 4 14 2 9 -5 -7 -12 12 -28 21 -18 7
7 -26 46 -39 46 -4 0 -8 -7 -8 -15z"/>
<path d="M6582 5764 c-16 -18 -15 -23 4 -20 8 1 20 9 25 17 6 10 9 10 9 2 0
-7 5 -13 12 -13 9 0 9 3 0 12 -17 17 -35 18 -50 2z"/>
<path d="M6470 5731 c0 -6 4 -13 10 -16 6 -3 7 1 4 9 -7 18 -14 21 -14 7z"/>
<path d="M6376 5717 c3 -10 9 -15 12 -12 3 3 0 11 -7 18 -10 9 -11 8 -5 -6z"/>
<path d="M6314 5659 c0 -16 4 -29 8 -29 5 0 6 10 3 21 -5 15 -4 19 4 15 6 -4
11 -3 11 2 0 6 -6 12 -13 15 -9 3 -13 -4 -13 -24z"/>
<path d="M6566 5675 c4 -8 8 -15 10 -15 2 0 4 7 4 15 0 8 -4 15 -10 15 -5 0
-7 -7 -4 -15z"/>
<path d="M6236 5655 c-9 -26 -7 -32 5 -12 6 10 9 21 6 23 -2 3 -7 -2 -11 -11z"/>
<path d="M6172 5634 c-7 -8 -8 -14 -3 -14 10 0 25 19 20 25 -2 1 -10 -3 -17
-11z"/>
<path d="M6145 5600 c-3 -5 -1 -10 4 -10 6 0 11 5 11 10 0 6 -2 10 -4 10 -3 0
-8 -4 -11 -10z"/>
<path d="M6145 5570 c-3 -5 -2 -10 4 -10 5 0 13 5 16 10 3 6 2 10 -4 10 -5 0
-13 -4 -16 -10z"/>
<path d="M5969 5492 c11 -8 11 -10 0 -14 -9 -3 -8 -6 5 -11 13 -5 17 -3 14 10
-2 9 -10 18 -18 20 -12 4 -12 3 -1 -5z"/>
<path d="M5825 5480 c-4 -6 -4 -14 -1 -17 3 -4 6 0 6 8 0 12 2 12 10 -1 5 -8
12 -12 15 -9 3 4 -1 12 -9 18 -10 9 -16 9 -21 1z"/>
<path d="M5733 5445 c0 -8 4 -12 9 -9 5 3 6 10 3 15 -9 13 -12 11 -12 -6z"/>
<path d="M5790 5444 c0 -8 5 -12 10 -9 6 4 8 11 5 16 -9 14 -15 11 -15 -7z"/>
<path d="M5566 5417 c3 -10 9 -15 12 -12 3 3 0 11 -7 18 -10 9 -11 8 -5 -6z"/>
<path d="M5675 5410 c6 -10 4 -12 -9 -7 -10 4 -15 3 -11 -3 4 -6 14 -9 23 -8
20 4 23 -23 3 -30 -8 -3 -11 0 -7 7 4 6 2 11 -3 11 -16 0 -13 -15 4 -30 17
-14 31 -7 37 18 3 11 -4 25 -20 36 -14 11 -22 13 -17 6z"/>
<path d="M5720 5410 c0 -5 5 -10 11 -10 5 0 7 5 4 10 -3 6 -8 10 -11 10 -2 0
-4 -4 -4 -10z"/>
<path d="M5607 5399 c7 -7 15 -10 18 -7 3 3 -2 9 -12 12 -14 6 -15 5 -6 -5z"/>
<path d="M5571 5374 c0 -11 3 -14 6 -6 3 7 2 16 -1 19 -3 4 -6 -2 -5 -13z"/>
<path d="M5474 5338 c-5 -13 -7 -26 -6 -30 1 -5 -1 -7 -5 -7 -5 1 -15 1 -23 0
-13 -1 -13 -3 0 -10 8 -6 18 -7 22 -5 4 3 5 -2 2 -11 -5 -12 -10 -13 -17 -6
-6 6 -16 11 -21 11 -6 0 -3 -5 7 -11 9 -6 14 -16 11 -22 -4 -7 3 -3 14 8 12
12 23 38 26 63 5 46 1 54 -10 20z"/>
<path d="M5390 5336 c0 -2 7 -7 16 -10 8 -3 12 -2 9 4 -6 10 -25 14 -25 6z"/>
<path d="M5433 5325 c0 -8 4 -12 9 -9 4 3 8 9 8 15 0 5 -4 9 -8 9 -5 0 -9 -7
-9 -15z"/>
<path d="M5303 5305 c0 -8 4 -15 9 -15 4 0 8 4 8 9 0 6 -4 12 -8 15 -5 3 -9
-1 -9 -9z"/>
<path d="M5336 5305 c-3 -8 -1 -15 4 -15 6 0 10 7 10 15 0 8 -2 15 -4 15 -2 0
-6 -7 -10 -15z"/>
<path d="M5268 5279 c-10 -10 -18 -25 -18 -31 1 -8 6 -6 14 4 7 10 16 15 19
11 4 -3 7 3 7 15 0 26 0 26 -22 1z"/>
<path d="M5111 5254 c0 -11 3 -14 6 -6 3 7 2 16 -1 19 -3 4 -6 -2 -5 -13z"/>
<path d="M5221 5265 c-2 -5 -2 -22 -1 -36 1 -19 -5 -28 -19 -32 -11 -3 -22 0
-25 7 -2 6 -4 -1 -3 -16 1 -29 17 -40 17 -12 0 8 4 13 9 10 16 -10 32 22 28
56 -2 18 -5 29 -6 23z"/>
<path d="M5146 5247 c3 -10 9 -15 12 -12 3 3 0 11 -7 18 -10 9 -11 8 -5 -6z"/>
<path d="M5176 5252 c-3 -5 1 -9 9 -9 8 0 12 4 9 9 -3 4 -7 8 -9 8 -2 0 -6 -4
-9 -8z"/>
<path d="M5300 5244 c0 -8 5 -12 10 -9 6 3 10 1 10 -6 0 -7 2 -10 5 -7 8 7 -5
38 -16 38 -5 0 -9 -7 -9 -16z"/>
<path d="M5275 5240 c-3 -5 -1 -10 4 -10 6 0 11 5 11 10 0 6 -2 10 -4 10 -3 0
-8 -4 -11 -10z"/>
<path d="M5050 5226 c0 -2 7 -7 16 -10 8 -3 12 -2 9 4 -6 10 -25 14 -25 6z"/>
<path d="M5100 5220 c-9 -6 -11 -10 -3 -10 7 0 10 -7 6 -17 -3 -10 -3 -15 2
-11 4 4 14 0 21 -10 15 -20 26 -12 29 21 2 13 -2 24 -9 24 -7 0 -13 -6 -13
-13 0 -7 5 -10 10 -7 6 4 7 1 2 -7 -6 -10 -11 -9 -21 5 -7 10 -11 22 -8 26 7
11 3 11 -16 -1z"/>
<path d="M5186 5218 c3 -4 9 -8 15 -8 5 0 9 4 9 8 0 5 -7 9 -15 9 -8 0 -12 -4
-9 -9z"/>
<path d="M5008 5208 c5 -5 16 -8 23 -6 8 3 3 7 -10 11 -17 4 -21 3 -13 -5z"/>
<path d="M5046 5194 c-3 -9 -12 -14 -19 -11 -8 3 -14 -1 -14 -9 0 -8 6 -14 13
-14 15 0 25 -25 18 -45 -4 -8 -2 -15 3 -15 12 0 15 48 3 55 -7 4 -6 13 1 26 6
12 9 23 6 25 -2 3 -7 -3 -11 -12z"/>
<path d="M4966 5185 c23 -17 34 -19 34 -4 0 5 -4 7 -10 4 -5 -3 -10 -1 -10 4
0 6 -8 11 -17 11 -15 0 -14 -2 3 -15z"/>
<path d="M5077 5187 c-4 -10 -2 -17 6 -17 9 0 8 -3 -1 -9 -11 -7 -10 -9 3 -14
9 -4 13 -3 10 3 -3 6 0 10 7 10 9 0 9 3 2 8 -6 4 -13 14 -16 21 -3 12 -6 12
-11 -2z"/>
<path d="M4870 5176 c0 -8 4 -17 9 -20 5 -4 7 3 4 14 -6 23 -13 26 -13 6z"/>
<path d="M4896 5168 c3 -4 9 -8 15 -8 5 0 9 4 9 8 0 5 -7 9 -15 9 -8 0 -12 -4
-9 -9z"/>
<path d="M4931 5173 c4 -21 -2 -43 -12 -43 -5 0 -7 5 -3 12 4 6 3 8 -3 5 -6
-4 -13 -16 -16 -28 -4 -15 -2 -19 10 -15 8 3 18 6 23 6 11 0 19 60 8 66 -5 3
-8 2 -7 -3z"/>
<path d="M4817 5153 c3 -7 6 -13 8 -13 2 0 5 6 8 13 3 8 -1 14 -8 14 -7 0 -11
-6 -8 -14z"/>
<path d="M4780 5156 c0 -2 7 -9 15 -16 9 -7 15 -8 15 -2 0 5 -7 12 -15 16 -8
3 -15 4 -15 2z"/>
<path d="M4755 5140 c3 -5 8 -10 11 -10 2 0 4 5 4 10 0 6 -5 10 -11 10 -5 0
-7 -4 -4 -10z"/>
<path d="M4953 5130 c1 -11 5 -20 9 -20 3 0 6 9 5 20 -1 11 -5 20 -9 20 -3 0
-6 -9 -5 -20z"/>
<path d="M4725 5129 c-4 -6 -5 -12 -2 -15 2 -3 7 2 10 11 7 17 1 20 -8 4z"/>
<path d="M4783 5119 c0 -8 -4 -21 -7 -30 -5 -10 -1 -19 8 -22 18 -7 51 35 43
55 -4 8 -6 6 -6 -4 -1 -22 -10 -23 -26 -2 -9 13 -12 13 -12 3z m21 -27 c3 -5
-1 -9 -9 -9 -8 0 -12 4 -9 9 3 4 7 8 9 8 2 0 6 -4 9 -8z"/>
<path d="M4607 5103 c-4 -3 -7 -11 -7 -17 0 -6 5 -5 12 2 6 6 9 14 7 17 -3 3
-9 2 -12 -2z"/>
<path d="M4550 5089 c0 -5 5 -7 10 -4 6 3 10 8 10 11 0 2 -4 4 -10 4 -5 0 -10
-5 -10 -11z"/>
<path d="M4506 5065 c-3 -8 -1 -15 4 -15 6 0 10 7 10 15 0 8 -2 15 -4 15 -2 0
-6 -7 -10 -15z"/>
<path d="M4845 5070 c-3 -6 1 -7 9 -4 18 7 21 14 7 14 -6 0 -13 -4 -16 -10z"/>
<path d="M4536 5058 c3 -4 9 -8 15 -8 5 0 9 4 9 8 0 5 -7 9 -15 9 -8 0 -12 -4
-9 -9z"/>
<path d="M4452 5018 c7 -15 15 -23 17 -17 2 6 -4 18 -13 27 -15 15 -15 15 -4
-10z"/>
<path d="M4626 5021 c-4 -5 -2 -12 4 -16 6 -4 8 -10 5 -15 -3 -5 -1 -11 5 -15
6 -4 10 4 10 19 0 26 -15 43 -24 27z"/>
<path d="M4433 5002 c-9 -6 -7 -11 6 -19 16 -10 18 -9 14 8 -3 10 -6 19 -7 19
0 0 -6 -4 -13 -8z"/>
<path d="M4194 4940 c2 -20 36 -26 36 -6 0 8 -5 18 -12 22 -6 4 -8 3 -4 -4 3
-6 2 -13 -3 -16 -5 -4 -11 -1 -14 6 -2 8 -3 7 -3 -2z"/>
<path d="M4336 4925 c-3 -8 -1 -15 4 -15 6 0 10 7 10 15 0 8 -2 15 -4 15 -2 0
-6 -7 -10 -15z"/>
<path d="M3859 4908 c-8 -7 -12 -12 -10 -11 2 2 9 -1 15 -7 8 -6 12 -3 12 11
0 10 -1 19 -1 19 -1 0 -8 -6 -16 -12z"/>
<path d="M4004 4905 c-9 -22 5 -38 22 -24 18 15 18 25 -1 33 -9 3 -18 -1 -21
-9z m21 -5 c3 -5 1 -10 -4 -10 -6 0 -11 5 -11 10 0 6 2 10 4 10 3 0 8 -4 11
-10z"/>
<path d="M3890 4899 c0 -5 5 -7 10 -4 6 3 10 8 10 11 0 2 -4 4 -10 4 -5 0 -10
-5 -10 -11z"/>
<path d="M3925 4900 c-3 -5 -1 -10 4 -10 6 0 11 5 11 10 0 6 -2 10 -4 10 -3 0
-8 -4 -11 -10z"/>
<path d="M3880 4854 c-13 -23 -5 -49 11 -38 6 3 5 12 -3 22 -11 13 -11 14 1 7
9 -5 12 -4 8 2 -4 6 0 14 8 17 12 4 13 2 6 -13 -12 -22 11 -63 23 -43 4 7 2
12 -3 12 -18 0 -13 28 7 39 19 11 18 12 -20 15 -19 2 -30 -4 -38 -20z"/>
<path d="M3610 4860 c-13 -8 -12 -10 3 -10 9 0 17 5 17 10 0 12 -1 12 -20 0z"/>
<path d="M3692 4861 c-11 -7 -11 -9 2 -14 9 -4 14 -12 12 -19 -1 -7 -1 -10 1
-5 3 4 9 5 14 1 5 -3 9 -1 9 4 0 6 -7 13 -16 16 -8 3 -12 10 -9 16 7 12 4 12
-13 1z"/>
<path d="M3720 4858 c0 -4 4 -8 9 -8 6 0 12 4 15 8 3 5 -1 9 -9 9 -8 0 -15 -4
-15 -9z"/>
<path d="M3534 4843 c2 -9 8 -18 15 -19 6 -1 7 0 1 3 -5 2 -8 9 -5 13 3 5 1
11 -4 14 -5 4 -8 -2 -7 -11z"/>
<path d="M3650 4849 c0 -5 5 -7 10 -4 6 3 10 8 10 11 0 2 -4 4 -10 4 -5 0 -10
-5 -10 -11z"/>
<path d="M3755 4846 c-18 -21 -15 -33 15 -61 17 -16 30 -25 30 -21 0 5 7 2 17
-5 15 -13 15 -12 5 8 -7 12 -22 23 -34 25 -13 2 -23 10 -23 18 0 9 7 14 18 12
9 -2 17 2 17 8 0 6 -4 9 -9 5 -6 -3 -13 1 -18 9 -6 11 -10 11 -18 2z"/>
<path d="M52 4830 c0 -14 2 -19 5 -12 2 6 2 18 0 25 -3 6 -5 1 -5 -13z"/>
<path d="M3566 4837 c3 -10 9 -15 12 -12 3 3 0 11 -7 18 -10 9 -11 8 -5 -6z"/>
<path d="M3624 4832 c3 -5 0 -13 -6 -15 -9 -4 -10 -6 -1 -6 17 -1 25 16 12 25
-7 4 -9 3 -5 -4z"/>
<path d="M3676 4827 c3 -10 9 -15 12 -12 3 3 0 11 -7 18 -10 9 -11 8 -5 -6z"/>
<path d="M3485 4821 c-9 -15 15 -25 28 -12 9 9 7 10 -7 5 -13 -5 -17 -4 -12 4
4 7 5 12 2 12 -3 0 -7 -4 -11 -9z"/>
<path d="M3649 4823 c0 -4 -2 -15 -4 -24 -1 -8 6 -21 16 -27 15 -10 19 -9 20
0 0 7 4 4 8 -7 7 -18 8 -17 13 6 3 19 0 26 -11 26 -40 0 -47 3 -32 12 9 6 10
11 2 15 -6 4 -11 4 -12 -1z"/>
<path d="M3580 4810 c-10 -6 -11 -10 -2 -10 6 0 12 -6 12 -14 0 -8 5 -18 12
-22 6 -4 8 -3 4 4 -3 6 2 15 11 21 16 9 16 10 -5 11 -13 0 -20 4 -17 10 8 12
4 12 -15 0z"/>
<path d="M2360 4585 c-7 -9 -8 -15 -2 -15 5 0 12 7 16 15 3 8 4 15 2 15 -2 0
-9 -7 -16 -15z"/>
<path d="M2331 4564 c0 -11 3 -14 6 -6 3 7 2 16 -1 19 -3 4 -6 -2 -5 -13z"/>
<path d="M2231 4544 c0 -11 3 -14 6 -6 3 7 2 16 -1 19 -3 4 -6 -2 -5 -13z"/>
<path d="M2271 4544 c0 -11 3 -14 6 -6 3 7 2 16 -1 19 -3 4 -6 -2 -5 -13z"/>
<path d="M2310 4551 c0 -7 -4 -10 -8 -7 -4 2 -9 -5 -9 -16 -1 -11 -9 -25 -17
-31 -12 -9 -13 -16 -5 -27 9 -12 10 -12 5 4 -5 15 -4 17 8 7 17 -14 26 -3 22
25 -2 10 1 25 7 32 5 7 7 15 3 19 -3 3 -6 1 -6 -6z"/>
<path d="M2017 4533 c3 -7 6 -13 8 -13 2 0 5 6 8 13 3 8 -1 14 -8 14 -7 0 -11
-6 -8 -14z"/>
<path d="M2070 4546 c0 -2 7 -9 15 -16 9 -7 15 -8 15 -2 0 5 -7 12 -15 16 -8
3 -15 4 -15 2z"/>
<path d="M2157 4531 c-4 -17 -3 -21 5 -13 5 5 8 16 6 23 -3 8 -7 3 -11 -10z"/>
<path d="M2046 4523 c-6 -14 -5 -15 5 -6 7 7 10 15 7 18 -3 3 -9 -2 -12 -12z"/>
<path d="M2125 4530 c3 -5 8 -10 11 -10 2 0 4 5 4 10 0 6 -5 10 -11 10 -5 0
-7 -4 -4 -10z"/>
<path d="M2186 4528 c3 -4 9 -8 15 -8 5 0 9 4 9 8 0 5 -7 9 -15 9 -8 0 -12 -4
-9 -9z"/>
<path d="M1856 4497 c3 -10 9 -15 12 -12 3 3 0 11 -7 18 -10 9 -11 8 -5 -6z"/>
<path d="M1890 4501 c0 -5 5 -13 10 -16 6 -3 10 -2 10 4 0 5 -4 13 -10 16 -5
3 -10 2 -10 -4z"/>
<path d="M1965 4490 c24 -27 12 -37 -13 -12 -16 16 -22 18 -26 6 -3 -7 -2 -13
2 -12 4 1 18 -4 30 -11 13 -7 26 -10 29 -8 9 10 -8 45 -24 52 -14 5 -14 3 2
-15z"/>
<path d="M2000 4483 c0 -14 6 -23 15 -23 8 0 15 -4 15 -9 0 -5 -7 -8 -16 -7
-9 0 -19 -4 -21 -11 -6 -18 28 -9 43 12 9 12 14 14 14 5 0 -7 2 -11 5 -9 2 3
0 18 -4 35 -9 28 -9 28 -11 4 -1 -14 -4 -19 -7 -12 -2 6 -9 10 -14 6 -12 -7
-11 10 1 22 7 7 6 11 -5 11 -9 0 -15 -9 -15 -24z"/>
<path d="M2084 4502 c-9 -5 -8 -10 1 -19 11 -10 13 -9 12 7 -1 11 -1 20 -2 20
0 0 -5 -4 -11 -8z"/>
<path d="M1775 4491 c-3 -5 -2 -12 3 -15 5 -3 9 1 9 9 0 17 -3 19 -12 6z"/>
<path d="M1550 4475 c-7 -8 -17 -12 -23 -8 -6 3 -7 1 -3 -5 10 -17 19 -15 34
8 14 23 10 26 -8 5z"/>
<path d="M1810 4472 c9 -19 30 -23 30 -5 0 4 -3 3 -7 0 -3 -4 -12 1 -20 11
-13 15 -13 15 -3 -6z"/>
<path d="M1574 4469 c-3 -6 -2 -15 3 -20 5 -5 9 -1 9 11 0 23 -2 24 -12 9z"/>
<path d="M1750 4475 c0 -5 5 -17 10 -25 8 -13 11 -13 22 -1 8 9 9 12 1 7 -6
-3 -16 2 -22 11 -6 10 -10 14 -11 8z"/>
<path d="M1875 4469 c-4 -5 1 -19 11 -30 10 -11 12 -19 6 -19 -7 0 -12 -5 -12
-11 0 -8 4 -8 14 0 7 6 14 23 14 36 0 22 -3 24 -16 13 -13 -11 -15 -10 -9 5 7
19 2 23 -8 6z"/>
<path d="M2062 4468 c2 -6 10 -14 16 -16 7 -2 10 2 6 12 -7 18 -28 22 -22 4z"/>
<path d="M1611 4451 c-8 -5 -9 -11 -3 -15 5 -3 12 1 16 9 6 17 6 18 -13 6z"/>
<path d="M1650 4450 c-9 -6 -10 -10 -3 -10 6 0 15 5 18 10 8 12 4 12 -15 0z"/>
<path d="M1672 4440 c-7 -12 -17 -18 -22 -15 -6 4 -13 -1 -16 -9 -3 -9 -10
-16 -16 -16 -5 0 -6 5 -2 12 4 6 3 8 -4 4 -5 -3 -13 0 -15 6 -4 9 -6 9 -6 1
-1 -6 6 -19 15 -27 9 -9 11 -16 4 -16 -6 0 -8 -5 -4 -11 4 -8 10 -5 17 7 6 11
15 22 20 26 12 7 39 -1 49 -16 5 -8 8 -7 8 1 0 6 -4 14 -9 18 -5 3 -8 17 -5
30 5 30 3 31 -14 5z"/>
<path d="M1925 4444 c4 -10 8 -27 9 -36 0 -13 3 -14 14 -5 9 7 10 13 3 15 -6
2 -11 10 -11 17 0 8 -5 17 -12 21 -8 5 -9 2 -3 -12z"/>
<path d="M1705 4440 c-3 -6 1 -7 9 -4 18 7 21 14 7 14 -6 0 -13 -4 -16 -10z"/>
<path d="M102 4420 c0 -14 2 -19 5 -12 2 6 2 18 0 25 -3 6 -5 1 -5 -13z"/>
<path d="M1316 4423 c-6 -14 -5 -15 5 -6 7 7 10 15 7 18 -3 3 -9 -2 -12 -12z"/>
<path d="M1348 4422 c4 -10 7 -12 10 -4 2 7 9 9 15 5 7 -3 8 -2 4 2 -14 16
-36 14 -29 -3z"/>
<path d="M1496 4426 c5 -12 4 -17 -3 -13 -5 3 -10 0 -10 -8 0 -20 13 -19 21 2
4 9 2 21 -4 27 -8 8 -9 6 -4 -8z"/>
<path d="M986 4418 c3 -5 10 -6 15 -3 13 9 11 12 -6 12 -8 0 -12 -4 -9 -9z"/>
<path d="M1238 4417 c7 -8 8 -18 4 -22 -4 -5 -1 -5 6 -1 17 10 15 23 -4 30
-13 5 -14 4 -6 -7z"/>
<path d="M1390 4421 c0 -6 4 -13 10 -16 6 -3 7 1 4 9 -7 18 -14 21 -14 7z"/>
<path d="M1425 4420 c-3 -6 1 -7 9 -4 18 7 21 14 7 14 -6 0 -13 -4 -16 -10z"/>
<path d="M1568 4412 c-3 -12 -2 -22 3 -22 4 0 6 -8 2 -17 -4 -13 -3 -15 5 -8
7 7 9 21 4 40 -8 28 -9 28 -14 7z"/>
<path d="M125 4410 c3 -5 8 -10 11 -10 2 0 4 5 4 10 0 6 -5 10 -11 10 -5 0 -7
-4 -4 -10z"/>
<path d="M1270 4416 c0 -2 8 -10 18 -17 15 -13 16 -12 3 4 -13 16 -21 21 -21
13z"/>
<path d="M1100 4401 c0 -6 4 -13 10 -16 6 -3 7 1 4 9 -7 18 -14 21 -14 7z"/>
<path d="M1167 4399 c7 -7 15 -10 18 -7 3 3 -2 9 -12 12 -14 6 -15 5 -6 -5z"/>
<path d="M1216 4393 c-6 -14 -5 -15 5 -6 7 7 10 15 7 18 -3 3 -9 -2 -12 -12z"/>
<path d="M880 4388 c0 -4 4 -8 9 -8 6 0 12 4 15 8 3 5 -1 9 -9 9 -8 0 -15 -4
-15 -9z"/>
<path d="M973 4392 c-8 -5 -6 -14 7 -32 11 -14 20 -20 20 -13 0 6 -5 15 -11
18 -6 4 -8 13 -5 21 6 16 5 16 -11 6z"/>
<path d="M1000 4390 c0 -5 5 -10 11 -10 5 0 7 5 4 10 -3 6 -8 10 -11 10 -2 0
-4 -4 -4 -10z"/>
<path d="M1038 4388 c-8 -19 10 -60 22 -53 6 4 17 1 25 -5 9 -8 15 -8 15 -2 0
6 -6 13 -12 15 -10 4 -10 6 0 6 6 1 12 6 12 12 0 6 -5 7 -12 2 -21 -13 -40
-12 -35 1 3 7 2 18 -3 25 -6 10 -8 10 -12 -1z"/>
<path d="M1073 4385 c0 -8 4 -12 9 -9 5 3 6 10 3 15 -9 13 -12 11 -12 -6z"/>
<path d="M1315 4391 c3 -5 0 -11 -6 -13 -6 -2 -3 -12 9 -25 l19 -22 0 29 c0
16 -7 32 -14 34 -8 3 -12 2 -8 -3z"/>
<path d="M1356 4388 c3 -4 9 -8 15 -8 5 0 9 4 9 8 0 5 -7 9 -15 9 -8 0 -12 -4
-9 -9z"/>
<path d="M1415 4390 c-7 -11 12 -50 25 -50 5 0 11 4 14 9 9 13 -4 42 -16 35
-5 -3 -4 -13 4 -22 12 -15 11 -16 -4 -4 -9 8 -14 20 -11 28 6 16 -3 19 -12 4z"/>
<path d="M1464 4365 l1 -36 18 23 c15 17 16 23 5 27 -7 2 -16 8 -19 13 -3 5
-5 -8 -5 -27z"/>
<path d="M287 4375 c3 -8 9 -12 14 -9 12 7 11 11 -5 17 -10 4 -13 1 -9 -8z"/>
<path d="M471 4383 c-1 -17 16 -25 25 -12 4 7 3 9 -4 5 -5 -3 -13 0 -15 6 -4
9 -6 10 -6 1z"/>
<path d="M750 4370 c6 -11 13 -20 16 -20 2 0 0 9 -6 20 -6 11 -13 20 -16 20
-2 0 0 -9 6 -20z"/>
<path d="M932 4360 c0 -19 2 -27 5 -17 2 9 2 25 0 35 -3 9 -5 1 -5 -18z"/>
<path d="M256 4367 c3 -9 0 -25 -7 -34 -12 -14 -12 -16 1 -11 19 6 25 37 10
52 -8 8 -10 7 -4 -7z"/>
<path d="M671 4366 c-7 -8 -8 -17 -3 -20 6 -3 12 3 15 14 6 24 4 25 -12 6z"/>
<path d="M785 4371 c3 -5 -1 -16 -9 -24 -8 -8 -12 -17 -9 -21 10 -10 20 -7 20
7 0 6 4 20 8 30 4 10 3 17 -5 17 -6 0 -9 -4 -5 -9z"/>
<path d="M820 4369 c0 -5 5 -7 10 -4 6 3 10 8 10 11 0 2 -4 4 -10 4 -5 0 -10
-5 -10 -11z"/>
<path d="M1232 4366 c2 -8 -1 -14 -7 -13 -5 1 -9 5 -7 10 6 19 -14 4 -25 -18
-11 -24 -5 -33 11 -17 4 4 12 8 17 8 5 1 13 2 18 3 12 1 10 41 -2 41 -4 0 -7
-6 -5 -14z"/>
<path d="M170 4361 c0 -6 5 -13 10 -16 6 -3 10 1 10 9 0 9 -4 16 -10 16 -5 0
-10 -4 -10 -9z"/>
<path d="M210 4360 c-9 -6 -11 -13 -4 -22 6 -7 10 -25 9 -40 -1 -23 2 -25 17
-17 23 12 24 31 1 22 -12 -5 -15 -2 -10 10 3 9 1 19 -5 23 -7 4 -6 9 3 15 7 4
11 10 8 13 -2 3 -11 1 -19 -4z"/>
<path d="M401 4357 c-1 -11 -6 -15 -13 -11 -7 5 -8 3 -3 -5 10 -16 29 2 22 21
-4 8 -6 7 -6 -5z"/>
<path d="M634 4358 c-4 -6 0 -16 8 -22 13 -10 13 -13 2 -24 -11 -10 -14 -10
-14 0 0 9 -3 9 -10 -2 -14 -21 -12 -37 4 -43 8 -3 13 1 12 11 -1 12 6 16 22
14 16 -2 25 4 31 20 9 21 10 21 11 3 1 -20 1 -20 15 -1 8 11 18 17 22 13 3 -4
-2 -16 -11 -26 -17 -19 -17 -20 1 -18 15 1 20 9 20 34 0 33 -10 43 -22 22 -4
-6 -13 -8 -21 -5 -7 3 -16 1 -20 -5 -4 -6 -13 -4 -25 7 -10 9 -16 21 -13 25 3
5 3 9 0 9 -3 0 -8 -5 -12 -12z m40 -46 c3 -5 -1 -9 -9 -9 -8 0 -12 4 -9 9 3 4
7 8 9 8 2 0 6 -4 9 -8z"/>
<path d="M705 4360 c-3 -5 -1 -10 4 -10 6 0 11 5 11 10 0 6 -2 10 -4 10 -3 0
-8 -4 -11 -10z"/>
<path d="M883 4355 c0 -8 4 -15 9 -15 4 0 8 4 8 9 0 6 -4 12 -8 15 -5 3 -9 -1
-9 -9z"/>
<path d="M836 4351 c-4 -6 -2 -11 5 -11 8 0 8 -4 -1 -15 -11 -14 -7 -19 13
-16 4 0 7 -5 7 -11 0 -9 4 -8 10 2 8 13 10 13 10 1 0 -11 6 -9 20 7 11 12 20
27 20 33 0 7 -6 5 -13 -6 -8 -10 -19 -15 -25 -11 -7 4 -12 2 -12 -4 0 -6 -5
-8 -10 -5 -6 4 -8 10 -6 14 3 4 1 13 -3 20 -6 9 -11 10 -15 2z"/>
<path d="M1389 4343 c-13 -16 -12 -17 4 -4 16 13 21 21 13 21 -2 0 -10 -8 -17
-17z"/>
<path d="M286 4341 c-4 -6 -4 -11 0 -11 4 0 -1 -6 -12 -14 -17 -13 -17 -14 -1
-12 27 4 43 24 30 37 -8 8 -13 8 -17 0z"/>
<path d="M320 4318 c0 -9 5 -20 10 -23 13 -8 13 5 0 25 -8 13 -10 13 -10 -2z"/>
<path d="M460 4305 c0 -8 7 -15 15 -15 9 0 12 6 9 15 -4 8 -10 15 -15 15 -5 0
-9 -7 -9 -15z"/>
</g>
</svg>
