<svg width="99" height="16" viewBox="0 0 99 16" fill="none" xmlns="http://www.w3.org/2000/svg">
<path d="M7.58 6.64C7.67333 6.92 7.72 7.22667 7.72 7.56C7.72 7.88 7.71333 8.12667 7.7 8.3L7.68 9.2C7.68 9.4 7.68667 9.58 7.7 9.74C7.71333 9.88667 7.72 10.02 7.72 10.14C7.72 10.2733 7.52667 10.3733 7.14 10.44C6.76667 10.4933 6.24 10.5467 5.56 10.6C5.46667 10.6133 5.37333 10.62 5.28 10.62C5.2 10.62 5.12667 10.6267 5.06 10.64C4.96667 11.9867 4.92 13.36 4.92 14.76V15.56C4.33333 15.6267 3.55333 15.66 2.58 15.66C1.72667 15.66 1.20667 15.5933 1.02 15.46V15.2C0.806667 15.16 0.673333 15.1133 0.62 15.06C0.62 12.34 0.626667 10.3467 0.64 9.08L0.66 1.22C1.11333 1.12667 1.88667 1.04667 2.98 0.979999C4.07333 0.9 5.14 0.86 6.18 0.86C7.76667 0.86 9.04 0.973333 10 1.2V1.52C10.0533 1.54667 10.1867 1.57333 10.4 1.6C10.4 1.93333 10.4067 2.20667 10.42 2.42L10.44 3.54C10.44 3.84667 10.42 4.3 10.38 4.9L8.54 5C6.82 5.09333 5.64 5.16667 5 5.22C4.92 5.51333 4.88 5.74667 4.88 5.92L4.86 6.14C4.86 6.27333 4.96 6.34 5.16 6.34C5.98667 6.34 6.66 6.30667 7.18 6.24C7.22 6.33333 7.25333 6.48 7.28 6.68L7.58 6.64ZM7.12 9.74C7.09333 9.44667 7.08 9.2 7.08 9L7.1 8.04C7.11333 7.84 7.12 7.56 7.12 7.2C7.12 6.82667 7.1 6.58 7.06 6.46C6.83333 6.5 6.51333 6.52 6.1 6.52C5.7 6.52 5.44 6.52 5.32 6.52C5.04 6.52 4.82667 6.5 4.68 6.46C4.54667 6.42 4.44667 6.33333 4.38 6.2C4.31333 6.05333 4.28 5.82667 4.28 5.52C4.28 5.18667 4.34 4.89333 4.46 4.64C5.04667 4.58667 6.18667 4.51333 7.88 4.42C8.49333 4.40667 9.13333 4.37333 9.8 4.32C9.81333 4.2 9.82 3.98667 9.82 3.68V2.86L9.8 1.36C9 1.16 7.79333 1.06 6.18 1.06C5.14 1.06 4.10667 1.1 3.08 1.18C2.05333 1.24667 1.31333 1.32 0.86 1.4V4.26L0.84 8.88C0.826667 9.72 0.82 11 0.82 12.72L0.84 14.98C0.933333 15.0333 1.38 15.06 2.18 15.06C3.12667 15.06 3.84 15.0333 4.32 14.98V14.36C4.34667 12.4667 4.4 11.04 4.48 10.08H4.5C4.76667 10.0267 5.19333 9.97333 5.78 9.92C6.36667 9.86667 6.79333 9.82 7.06 9.78C7.1 9.78 7.12 9.76667 7.12 9.74ZM19.8628 2.02C19.9295 3.44667 19.9628 4.73333 19.9628 5.88C19.9628 8.18667 19.8495 10.36 19.6228 12.4C19.4895 13.44 19.0495 14.2867 18.3028 14.94C17.5561 15.5933 16.6295 15.92 15.5228 15.92C14.6828 15.92 13.8761 15.76 13.1028 15.44C12.3295 15.1333 11.6961 14.6867 11.2028 14.1C10.7095 13.5133 10.4495 12.8333 10.4228 12.06C10.4228 11.1 10.4361 9.66 10.4628 7.74C10.5028 6.26 10.5228 4.76 10.5228 3.24C10.5228 2.29333 10.5161 1.61333 10.5028 1.2C10.8361 1.2 11.0895 1.19333 11.2628 1.18L12.1028 1.16C12.7295 1.16 13.2695 1.22667 13.7228 1.36L13.7028 1.66C13.7428 1.67333 13.8095 1.68667 13.9028 1.7C13.9961 1.71333 14.0695 1.73333 14.1228 1.76C14.0695 2.76 14.0428 3.94667 14.0428 5.32C14.0428 7.24 14.1295 9.37333 14.3028 11.72V11.68C14.3295 11.8267 14.3895 11.9267 14.4828 11.98C14.5895 12.02 14.7228 12.04 14.8828 12.04C15.1361 12.04 15.3628 11.9667 15.5628 11.82C15.7628 11.6733 15.8961 11.4667 15.9628 11.2V11.24C16.0295 9.72 16.0628 7.88667 16.0628 5.74C16.0895 3.79333 16.1161 2.34 16.1428 1.38C16.8628 1.27333 17.5495 1.22 18.2028 1.22C18.4828 1.22 18.7161 1.24 18.9028 1.28C19.0895 1.30667 19.2495 1.36667 19.3828 1.46L19.4628 1.62V1.72C19.6095 1.76 19.7161 1.80667 19.7828 1.86L19.8628 2.02ZM18.1628 1.42C17.6695 1.42 17.0628 1.46667 16.3428 1.56C16.3295 2.12 16.3161 2.8 16.3028 3.6C16.2895 4.38667 16.2828 4.99333 16.2828 5.42C16.2561 8.02 16.2161 9.96 16.1628 11.24C16.0961 11.5467 15.9361 11.7933 15.6828 11.98C15.4428 12.1533 15.1761 12.24 14.8828 12.24C14.6161 12.24 14.3695 12.1667 14.1428 12.02C13.9295 11.86 13.7828 11.6333 13.7028 11.34C13.5295 9.26 13.4428 7.12 13.4428 4.92C13.4428 3.65333 13.4695 2.52 13.5228 1.52V1.5C13.1628 1.40667 12.7161 1.36 12.1828 1.36L11.3428 1.38C11.1961 1.39333 10.9828 1.4 10.7028 1.4H10.6828L10.7028 1.42L10.7228 3.3C10.7228 4.76667 10.7028 6.24 10.6628 7.72C10.6361 9.64 10.6228 11.0867 10.6228 12.06C10.6361 12.7667 10.8628 13.3667 11.3028 13.86C11.7428 14.3533 12.3028 14.72 12.9828 14.96C13.6628 15.2 14.3761 15.32 15.1228 15.32C16.2428 15.32 17.1428 15.02 17.8228 14.42C18.5028 13.82 18.9028 13.0067 19.0228 11.98C19.2495 10.1 19.3628 7.93333 19.3628 5.48C19.3628 4.33333 19.3295 3.04667 19.2628 1.62C19.0495 1.48667 18.6828 1.42 18.1628 1.42ZM29.1261 15.56C28.5928 15.6533 28.1661 15.7 27.8461 15.7C27.2328 15.7 26.6328 15.6333 26.0461 15.5C25.9928 15.34 25.9461 15.24 25.9061 15.2C25.8661 15.16 25.8194 15.1333 25.7661 15.12C25.7128 15.12 25.6728 15.1133 25.6461 15.1C25.5394 14.7667 25.3928 14.2267 25.2061 13.48C25.0994 13.04 25.0061 12.72 24.9261 12.52C24.8594 12.32 24.7861 12.22 24.7061 12.22C24.5994 12.22 24.5061 12.2267 24.4261 12.24C24.3594 12.24 24.2661 12.24 24.1461 12.24C24.0528 12.4933 23.9594 12.9 23.8661 13.46C23.7594 13.98 23.6661 14.3933 23.5861 14.7C23.5061 15.0067 23.3928 15.3 23.2461 15.58C23.2061 15.58 23.1461 15.5867 23.0661 15.6C22.9994 15.6133 22.9128 15.62 22.8061 15.62C22.6594 15.6067 22.3528 15.6 21.8861 15.6L21.0261 15.58L19.9661 15.56L20.0261 15.16H19.5661L19.8461 13.68C20.2194 11.52 20.6261 9.39333 21.0661 7.3C21.5061 5.19333 22.0594 3.03333 22.7261 0.819999C22.9661 0.793333 23.1061 0.779999 23.1461 0.779999C23.1994 0.779999 23.3728 0.786666 23.6661 0.799999C23.9594 0.813332 24.5728 0.773333 25.5061 0.68C25.5594 0.906666 25.5928 1.05333 25.6061 1.12L25.9061 1.08C26.0261 1.76 26.4461 3.6 27.1661 6.6C27.4328 7.69333 27.5728 8.27333 27.5861 8.34L29.1261 15.56ZM25.3461 0.899999C24.7594 0.953333 24.1794 0.979999 23.6061 0.979999H23.1861C23.0261 0.979999 22.9261 0.986666 22.8861 0.999999C22.2461 3.14667 21.7128 5.23333 21.2861 7.26C20.8728 9.28667 20.4594 11.4467 20.0461 13.74C20.0061 13.9933 19.9661 14.2333 19.9261 14.46C19.8861 14.6733 19.8528 14.84 19.8261 14.96L19.8661 14.98H20.3461L21.9261 15C22.0594 15.0133 22.2194 15.02 22.4061 15.02C22.5528 15.02 22.6394 15.0133 22.6661 15L22.7261 14.98C22.8461 14.78 22.9394 14.54 23.0061 14.26C23.0728 13.98 23.1461 13.6067 23.2261 13.14C23.3594 12.3933 23.4861 11.8933 23.6061 11.64C23.7528 11.64 23.8728 11.64 23.9661 11.64C24.0594 11.6267 24.1328 11.62 24.1861 11.62H24.4461L24.8461 11.66C24.9528 11.9 25.0594 12.2333 25.1661 12.66C25.2861 13.0867 25.3594 13.3533 25.3861 13.46C25.5194 14.0867 25.6528 14.5733 25.7861 14.92H25.8061C26.3261 15.04 26.8728 15.1 27.4461 15.1C27.7794 15.1 28.1261 15.0667 28.4861 15V14.98L26.9861 7.98L25.3461 0.899999ZM23.4661 9.28C23.6261 8.09333 23.6994 7.55333 23.6861 7.66C23.7928 6.76667 23.8794 6.12 23.9461 5.72C24.0261 5.30667 24.1061 5.1 24.1861 5.1C24.2794 5.1 24.3794 5.41333 24.4861 6.04C24.6061 6.66667 24.7594 7.74667 24.9461 9.28L23.9461 9.3L23.4661 9.28ZM24.4461 6.8L24.1261 9.08H24.7061L24.4461 6.8ZM36.838 2.96C37.4113 3.82667 37.8246 4.82667 38.078 5.96L38.058 5.94C38.1646 6.26 38.2313 6.70667 38.258 7.28L38.198 8.42C38.1713 9.55333 38.098 10.4133 37.978 11C37.698 11.8133 37.3313 12.58 36.878 13.3C36.438 14.02 35.918 14.7533 35.318 15.5C34.038 15.54 32.6713 15.56 31.218 15.56C30.8713 15.5733 30.3846 15.58 29.758 15.58L29.698 15.16L29.358 15.18C29.118 13.4333 28.998 11.2 28.998 8.48C28.998 7.34667 29.0046 6.49333 29.018 5.92L29.038 3.2C29.038 2.33333 29.0313 1.68667 29.018 1.26C29.018 1.23333 29.0246 1.21333 29.038 1.2C29.0646 1.13333 29.1113 1.06667 29.178 0.999999C29.5246 0.906666 29.8713 0.846666 30.218 0.819999C30.578 0.779999 30.998 0.76 31.478 0.76C31.8913 0.76 32.2046 0.766666 32.418 0.779999L33.338 0.799999C33.6846 0.799999 33.9446 0.793333 34.118 0.779999C34.6513 0.939999 35.178 1.23333 35.698 1.66C36.218 2.07333 36.6046 2.50667 36.858 2.96H36.838ZM33.518 0.999999C33.0913 0.999999 32.7646 0.993332 32.538 0.979999L31.538 0.96C30.618 0.96 29.8646 1.03333 29.278 1.18L29.218 1.26C29.2313 1.68667 29.238 2.32667 29.238 3.18L29.218 5.9C29.2046 6.48667 29.198 7.37333 29.198 8.56C29.198 9.89333 29.218 11.0667 29.258 12.08C29.3113 13.0933 29.4046 14.06 29.538 14.98L29.558 14.96C31.8913 14.96 33.6446 14.94 34.818 14.9C35.4313 14.14 35.9446 13.4267 36.358 12.76C36.7846 12.0933 37.118 11.3933 37.358 10.66L37.378 10.62C37.5113 9.91333 37.5913 8.96 37.618 7.76L37.658 6.86C37.618 6.14 37.478 5.41333 37.238 4.68C36.998 3.94667 36.678 3.27333 36.278 2.66C36.038 2.26 35.718 1.90667 35.318 1.6C34.9313 1.29333 34.5246 1.08667 34.098 0.979999L33.518 0.999999ZM33.458 10.68C33.2313 10.72 32.998 10.74 32.758 10.74C32.4513 10.74 32.2313 10.68 32.098 10.56C32.0713 9.94667 32.058 9.47333 32.058 9.14L32.078 7.8C32.0913 7.52 32.098 7.12 32.098 6.6C32.098 6.29333 32.0846 5.88667 32.058 5.38V5.3H32.118C32.358 5.26 32.6113 5.24 32.878 5.24C33.678 5.24 34.2313 5.53333 34.538 6.12C34.8446 6.69333 34.998 7.36667 34.998 8.14C34.998 8.74 34.8113 9.33333 34.438 9.92C34.3046 10.12 34.1513 10.3 33.978 10.46C33.8046 10.6067 33.6446 10.68 33.498 10.68H33.458ZM34.278 9.82C34.6246 9.3 34.798 8.74 34.798 8.14C34.798 7.84667 34.7446 7.49333 34.638 7.08C34.5313 6.65333 34.3846 6.28667 34.198 5.98L33.998 5.88C33.678 5.85333 33.438 5.84 33.278 5.84C33.158 5.84 32.9513 5.85333 32.658 5.88C32.6846 6.38667 32.698 6.80667 32.698 7.14L32.678 8.68C32.6513 9.37333 32.638 9.88667 32.638 10.22L32.658 10.54H32.758C32.9046 10.54 33.0446 10.5333 33.178 10.52C33.3113 10.4933 33.4113 10.48 33.478 10.48L33.518 10.5C33.558 10.5 33.6313 10.46 33.738 10.38H33.718C33.918 10.26 34.1046 10.0667 34.278 9.8V9.82ZM42.4903 0.86C43.4503 0.726666 44.2103 0.626666 44.7703 0.559999C45.3436 0.493332 45.9303 0.459999 46.5303 0.459999C47.6103 0.459999 48.537 0.586666 49.3103 0.84C50.097 1.09333 50.757 1.52667 51.2903 2.14C52.2503 3.32667 52.7303 4.42667 52.7303 5.44C52.7303 6.01333 52.6036 6.6 52.3503 7.2C52.097 7.78667 51.7303 8.29333 51.2503 8.72C50.7703 9.14667 50.2036 9.39333 49.5503 9.46C49.7903 9.88667 50.2103 10.54 50.8103 11.42C51.3436 12.1933 51.777 12.8667 52.1103 13.44C52.4436 14.0133 52.7303 14.6267 52.9703 15.28L53.0903 15.54H52.8103C52.597 15.54 52.237 15.5533 51.7303 15.58C51.1436 15.6067 50.697 15.62 50.3903 15.62C50.1103 15.62 49.757 15.6067 49.3303 15.58C49.3036 15.54 49.277 15.48 49.2503 15.4C49.2236 15.3333 49.1836 15.28 49.1303 15.24C49.0903 15.2 49.0236 15.18 48.9303 15.18C48.237 13.54 47.5236 12.1533 46.7903 11.02V11.54C46.7903 11.9133 46.8236 12.7 46.8903 13.9C46.9303 14.46 46.9503 14.9267 46.9503 15.3C46.6703 15.4333 46.357 15.52 46.0103 15.56C45.677 15.6 45.277 15.62 44.8103 15.62L43.9303 15.6H42.7703C42.757 15.3333 42.7503 15.0467 42.7503 14.74L42.7303 12.92V11.3C42.7303 9.22 42.7036 7.08667 42.6503 4.9C42.6103 2.71333 42.557 1.36667 42.4903 0.86ZM48.9303 8.88C49.6103 8.82667 50.1903 8.60667 50.6703 8.22C51.1503 7.82 51.5103 7.33333 51.7503 6.76C51.9903 6.18667 52.1103 5.61333 52.1103 5.04C52.1103 4.33333 51.9303 3.65333 51.5703 3C51.2236 2.34667 50.7303 1.81333 50.0903 1.4C49.4636 0.986666 48.7636 0.766666 47.9903 0.739999C47.5503 0.686666 47.057 0.66 46.5103 0.66C45.9103 0.66 45.3436 0.693333 44.8103 0.76C44.2903 0.813333 43.597 0.9 42.7303 1.02C42.797 1.40667 42.8503 2.59333 42.8903 4.58C42.9303 6.56667 42.9503 8.68667 42.9503 10.94V13C42.9503 13.64 42.9436 14.0867 42.9303 14.34V14.96C42.9703 14.9733 43.017 14.98 43.0703 14.98C43.2436 14.98 43.3836 14.9867 43.4903 15L44.2903 15.02C44.7836 15.02 45.197 15.0067 45.5303 14.98C45.8636 14.94 46.137 14.8733 46.3503 14.78C46.2436 13.46 46.1903 12.2533 46.1903 11.16C46.1903 10.6533 46.2103 10.2333 46.2503 9.9L46.2903 9.96C46.797 10.5733 47.297 11.3533 47.7903 12.3C48.2836 13.2333 48.7103 14.1267 49.0703 14.98H49.0903C49.5436 15.0067 49.8903 15.02 50.1303 15.02C50.4236 15.02 50.837 15.0067 51.3703 14.98C51.8503 14.9533 52.1903 14.94 52.3903 14.94C52.1503 14.3 51.8503 13.68 51.4903 13.08C51.1303 12.4667 50.6903 11.78 50.1703 11.02C50.037 10.8067 49.8236 10.4867 49.5303 10.06C49.2503 9.62 49.017 9.23333 48.8303 8.9L48.9303 8.88ZM47.0703 3.5C47.5236 3.5 47.897 3.64 48.1903 3.92C48.4836 4.18667 48.6303 4.55333 48.6303 5.02C48.6303 5.5 48.4903 5.84 48.2103 6.04C47.9436 6.24 47.5036 6.34 46.8903 6.34C46.477 6.34 46.1036 6.32 45.7703 6.28H45.7503C45.7103 6.05333 45.6903 5.58667 45.6903 4.88L45.6503 3.82C46.1303 3.60667 46.6036 3.5 47.0703 3.5ZM47.4703 4.1C47.097 4.1 46.6903 4.18667 46.2503 4.36C46.277 4.70667 46.2903 5.01333 46.2903 5.28L46.2703 5.86L46.2903 6.14H46.8903C47.197 6.14 47.4903 6.12 47.7703 6.08H47.7503C47.977 6.02667 48.1503 5.90667 48.2703 5.72C48.3903 5.52 48.4503 5.28667 48.4503 5.02C48.4503 4.40667 48.1236 4.1 47.4703 4.1ZM57.0619 1.14H57.4619V1.42C57.4619 2.47333 57.4552 3.4 57.4419 4.2C57.4285 5 57.4152 5.66667 57.4019 6.2C57.3485 8.36 57.3219 10 57.3219 11.12C57.3219 12.5733 57.3619 13.9933 57.4419 15.38C57.2285 15.5933 56.7419 15.7 55.9819 15.7L55.0819 15.68C54.8819 15.6667 54.6019 15.66 54.2419 15.66C53.9485 15.66 53.6619 15.6933 53.3819 15.76L53.4019 15.28C53.1752 15.3067 53.0352 15.3333 52.9819 15.36C53.0752 13.9867 53.1219 12.7333 53.1219 11.6C53.1219 10.84 53.1152 10.1733 53.1019 9.6C53.0885 9.01333 53.0752 8.53333 53.0619 8.16C53.0085 6.64 52.9819 5.48667 52.9819 4.7C52.9819 3.39333 53.0485 2.05333 53.1819 0.68C53.3685 0.653332 53.4885 0.639999 53.5419 0.639999C53.9152 0.639999 54.3019 0.653332 54.7019 0.68C55.0085 0.719999 55.4085 0.739999 55.9019 0.739999H57.0619V1.14ZM55.9219 0.94C55.6019 0.94 55.0819 0.92 54.3619 0.879999C53.9619 0.853333 53.6552 0.84 53.4419 0.84H53.3619V0.879999C53.2419 1.96 53.1819 3.22667 53.1819 4.68C53.1819 5.45333 53.1885 6.12667 53.2019 6.7C53.2152 7.27333 53.2285 7.75333 53.2419 8.14C53.2952 9.71333 53.3219 10.9067 53.3219 11.72C53.3219 12.84 53.2819 13.96 53.2019 15.08C53.3885 15.0533 53.5419 15.04 53.6619 15.04C53.8219 15.04 54.1152 15.0533 54.5419 15.08C55.0219 15.1067 55.3952 15.12 55.6619 15.12C56.3019 15.12 56.6952 15.0467 56.8419 14.9C56.7619 13.46 56.7219 12.0067 56.7219 10.54C56.7219 9.44667 56.7485 7.84667 56.8019 5.74C56.8152 5.20667 56.8285 4.54667 56.8419 3.76C56.8552 2.97333 56.8619 2.06 56.8619 1.02V0.94H55.9219ZM67.2172 1.62C66.8839 2.71333 66.4905 3.78667 66.0372 4.84C65.5839 5.88 64.9505 7.26 64.1372 8.98C63.4172 10.4867 62.8439 11.72 62.4172 12.68C61.9905 13.64 61.6039 14.62 61.2572 15.62C61.1239 15.5933 60.9839 15.58 60.8372 15.58L59.8972 15.6C59.3905 15.6267 59.0105 15.64 58.7572 15.64H58.4972C58.2972 15.64 58.1172 15.6267 57.9572 15.6L58.0772 15.24C58.0239 15.24 57.8505 15.2267 57.5572 15.2C58.0505 13.68 58.9505 11.3 60.2572 8.06C60.1372 7.51333 59.9705 6.98 59.7572 6.46C59.5572 5.92667 59.3039 5.31333 58.9972 4.62C58.6372 3.75333 58.3572 3.07333 58.1572 2.58C57.9705 2.07333 57.8105 1.53333 57.6772 0.96C58.0372 0.96 58.3839 0.939999 58.7172 0.899999C58.8372 0.886666 58.9839 0.873333 59.1572 0.86C59.3439 0.846666 59.5572 0.84 59.7972 0.84C60.4372 0.84 60.7839 1.00667 60.8372 1.34C60.9439 1.36667 61.0572 1.40667 61.1772 1.46C61.3639 2.35333 61.7305 3.48667 62.2772 4.86C62.3972 4.56667 62.6239 3.91333 62.9572 2.9C63.0105 2.72667 63.1039 2.44 63.2372 2.04C63.3839 1.62667 63.5105 1.3 63.6172 1.06C64.0305 0.953333 64.7772 0.899999 65.8572 0.899999C66.0172 0.899999 66.3372 0.919999 66.8172 0.96V1.22C66.8039 1.27333 66.7905 1.30667 66.7772 1.32C66.9905 1.34667 67.1372 1.36 67.2172 1.36V1.62ZM66.6172 1.14C66.4039 1.11333 66.1505 1.1 65.8572 1.1C64.9105 1.1 64.2105 1.14667 63.7572 1.24C63.5572 1.69333 63.3372 2.30667 63.0972 3.08C62.9372 3.56 62.7705 4.03333 62.5972 4.5C62.4372 4.96667 62.2839 5.32667 62.1372 5.58C61.8839 5.03333 61.5905 4.30667 61.2572 3.4C60.9372 2.49333 60.7172 1.76 60.5972 1.2C60.3705 1.09333 60.0572 1.04 59.6572 1.04C59.4572 1.04 59.2839 1.04667 59.1372 1.06C58.9905 1.07333 58.8639 1.08667 58.7572 1.1C58.4772 1.14 58.2039 1.16 57.9372 1.16C58.0572 1.66667 58.2172 2.18667 58.4172 2.72C58.6172 3.24 58.8772 3.86667 59.1972 4.6C59.5439 5.41333 59.8105 6.06667 59.9972 6.56C60.1839 7.05333 60.3372 7.55333 60.4572 8.06V8.1C59.7905 9.75333 59.2639 11.0867 58.8772 12.1C58.4905 13.1 58.1439 14.0733 57.8372 15.02H57.8772C57.9172 15.0333 57.9972 15.04 58.1172 15.04H58.3572C58.5839 15.04 58.9105 15.0267 59.3372 15L60.2372 14.98H60.4972C60.6172 14.98 60.6972 14.9867 60.7372 15C61.0705 14.0133 61.4439 13.0533 61.8572 12.12C62.2705 11.1867 62.8305 9.97333 63.5372 8.48C64.2839 6.94667 64.8972 5.62667 65.3772 4.52C65.8572 3.41333 66.2705 2.29333 66.6172 1.16V1.14ZM74.5948 15.56C74.0615 15.6533 73.6348 15.7 73.3148 15.7C72.7015 15.7 72.1015 15.6333 71.5148 15.5C71.4615 15.34 71.4148 15.24 71.3748 15.2C71.3348 15.16 71.2882 15.1333 71.2348 15.12C71.1815 15.12 71.1415 15.1133 71.1148 15.1C71.0082 14.7667 70.8615 14.2267 70.6748 13.48C70.5682 13.04 70.4748 12.72 70.3948 12.52C70.3282 12.32 70.2548 12.22 70.1748 12.22C70.0682 12.22 69.9748 12.2267 69.8948 12.24C69.8282 12.24 69.7348 12.24 69.6148 12.24C69.5215 12.4933 69.4282 12.9 69.3348 13.46C69.2282 13.98 69.1348 14.3933 69.0548 14.7C68.9748 15.0067 68.8615 15.3 68.7148 15.58C68.6748 15.58 68.6148 15.5867 68.5348 15.6C68.4682 15.6133 68.3815 15.62 68.2748 15.62C68.1282 15.6067 67.8215 15.6 67.3548 15.6L66.4948 15.58L65.4348 15.56L65.4948 15.16H65.0348L65.3148 13.68C65.6882 11.52 66.0948 9.39333 66.5348 7.3C66.9748 5.19333 67.5282 3.03333 68.1948 0.819999C68.4348 0.793333 68.5748 0.779999 68.6148 0.779999C68.6682 0.779999 68.8415 0.786666 69.1348 0.799999C69.4282 0.813332 70.0415 0.773333 70.9748 0.68C71.0282 0.906666 71.0615 1.05333 71.0748 1.12L71.3748 1.08C71.4948 1.76 71.9148 3.6 72.6348 6.6C72.9015 7.69333 73.0415 8.27333 73.0548 8.34L74.5948 15.56ZM70.8148 0.899999C70.2282 0.953333 69.6482 0.979999 69.0748 0.979999H68.6548C68.4948 0.979999 68.3948 0.986666 68.3548 0.999999C67.7148 3.14667 67.1815 5.23333 66.7548 7.26C66.3415 9.28667 65.9282 11.4467 65.5148 13.74C65.4748 13.9933 65.4348 14.2333 65.3948 14.46C65.3548 14.6733 65.3215 14.84 65.2948 14.96L65.3348 14.98H65.8148L67.3948 15C67.5282 15.0133 67.6882 15.02 67.8748 15.02C68.0215 15.02 68.1082 15.0133 68.1348 15L68.1948 14.98C68.3148 14.78 68.4082 14.54 68.4748 14.26C68.5415 13.98 68.6148 13.6067 68.6948 13.14C68.8282 12.3933 68.9548 11.8933 69.0748 11.64C69.2215 11.64 69.3415 11.64 69.4348 11.64C69.5282 11.6267 69.6015 11.62 69.6548 11.62H69.9148L70.3148 11.66C70.4215 11.9 70.5282 12.2333 70.6348 12.66C70.7548 13.0867 70.8282 13.3533 70.8548 13.46C70.9882 14.0867 71.1215 14.5733 71.2548 14.92H71.2748C71.7948 15.04 72.3415 15.1 72.9148 15.1C73.2482 15.1 73.5948 15.0667 73.9548 15V14.98L72.4548 7.98L70.8148 0.899999ZM68.9348 9.28C69.0948 8.09333 69.1682 7.55333 69.1548 7.66C69.2615 6.76667 69.3482 6.12 69.4148 5.72C69.4948 5.30667 69.5748 5.1 69.6548 5.1C69.7482 5.1 69.8482 5.41333 69.9548 6.04C70.0748 6.66667 70.2282 7.74667 70.4148 9.28L69.4148 9.3L68.9348 9.28ZM69.9148 6.8L69.5948 9.08H70.1748L69.9148 6.8ZM82.3067 2.96C82.8801 3.82667 83.2934 4.82667 83.5467 5.96L83.5267 5.94C83.6334 6.26 83.7001 6.70667 83.7267 7.28L83.6667 8.42C83.6401 9.55333 83.5667 10.4133 83.4467 11C83.1667 11.8133 82.8001 12.58 82.3467 13.3C81.9067 14.02 81.3867 14.7533 80.7867 15.5C79.5067 15.54 78.1401 15.56 76.6867 15.56C76.3401 15.5733 75.8534 15.58 75.2267 15.58L75.1667 15.16L74.8267 15.18C74.5867 13.4333 74.4667 11.2 74.4667 8.48C74.4667 7.34667 74.4734 6.49333 74.4867 5.92L74.5067 3.2C74.5067 2.33333 74.5001 1.68667 74.4867 1.26C74.4867 1.23333 74.4934 1.21333 74.5067 1.2C74.5334 1.13333 74.5801 1.06667 74.6467 0.999999C74.9934 0.906666 75.3401 0.846666 75.6867 0.819999C76.0467 0.779999 76.4667 0.76 76.9467 0.76C77.3601 0.76 77.6734 0.766666 77.8867 0.779999L78.8067 0.799999C79.1534 0.799999 79.4134 0.793333 79.5867 0.779999C80.1201 0.939999 80.6467 1.23333 81.1667 1.66C81.6867 2.07333 82.0734 2.50667 82.3267 2.96H82.3067ZM78.9867 0.999999C78.5601 0.999999 78.2334 0.993332 78.0067 0.979999L77.0067 0.96C76.0867 0.96 75.3334 1.03333 74.7467 1.18L74.6867 1.26C74.7001 1.68667 74.7067 2.32667 74.7067 3.18L74.6867 5.9C74.6734 6.48667 74.6667 7.37333 74.6667 8.56C74.6667 9.89333 74.6867 11.0667 74.7267 12.08C74.7801 13.0933 74.8734 14.06 75.0067 14.98L75.0267 14.96C77.3601 14.96 79.1134 14.94 80.2867 14.9C80.9001 14.14 81.4134 13.4267 81.8267 12.76C82.2534 12.0933 82.5867 11.3933 82.8267 10.66L82.8467 10.62C82.9801 9.91333 83.0601 8.96 83.0867 7.76L83.1267 6.86C83.0867 6.14 82.9467 5.41333 82.7067 4.68C82.4667 3.94667 82.1467 3.27333 81.7467 2.66C81.5067 2.26 81.1867 1.90667 80.7867 1.6C80.4001 1.29333 79.9934 1.08667 79.5667 0.979999L78.9867 0.999999ZM78.9267 10.68C78.7001 10.72 78.4667 10.74 78.2267 10.74C77.9201 10.74 77.7001 10.68 77.5667 10.56C77.5401 9.94667 77.5267 9.47333 77.5267 9.14L77.5467 7.8C77.5601 7.52 77.5667 7.12 77.5667 6.6C77.5667 6.29333 77.5534 5.88667 77.5267 5.38V5.3H77.5867C77.8267 5.26 78.0801 5.24 78.3467 5.24C79.1467 5.24 79.7001 5.53333 80.0067 6.12C80.3134 6.69333 80.4667 7.36667 80.4667 8.14C80.4667 8.74 80.2801 9.33333 79.9067 9.92C79.7734 10.12 79.6201 10.3 79.4467 10.46C79.2734 10.6067 79.1134 10.68 78.9667 10.68H78.9267ZM79.7467 9.82C80.0934 9.3 80.2667 8.74 80.2667 8.14C80.2667 7.84667 80.2134 7.49333 80.1067 7.08C80.0001 6.65333 79.8534 6.28667 79.6667 5.98L79.4667 5.88C79.1467 5.85333 78.9067 5.84 78.7467 5.84C78.6267 5.84 78.4201 5.85333 78.1267 5.88C78.1534 6.38667 78.1667 6.80667 78.1667 7.14L78.1467 8.68C78.1201 9.37333 78.1067 9.88667 78.1067 10.22L78.1267 10.54H78.2267C78.3734 10.54 78.5134 10.5333 78.6467 10.52C78.7801 10.4933 78.8801 10.48 78.9467 10.48L78.9867 10.5C79.0267 10.5 79.1001 10.46 79.2067 10.38H79.1867C79.3867 10.26 79.5734 10.0667 79.7467 9.8V9.82ZM93.5152 15.46C93.0085 15.5533 92.3485 15.6 91.5352 15.6C90.9752 15.6 90.5685 15.6067 90.3152 15.62L90.2552 15.2C90.0952 15.2 89.9818 15.2067 89.9152 15.22C89.8218 14.5133 89.7618 13.4933 89.7352 12.16C89.7085 11.1867 89.6752 10.4667 89.6352 10C89.3418 9.97333 89.1618 9.96 89.0952 9.96C88.7085 9.96 88.3552 9.99333 88.0352 10.06C88.0218 10.26 88.0152 10.5867 88.0152 11.04L88.0352 12.24C88.0485 12.5067 88.0552 12.9 88.0552 13.42C88.0552 14.26 88.0085 14.9133 87.9152 15.38C87.6752 15.5267 87.3485 15.6 86.9352 15.6C86.7752 15.6 86.5352 15.5867 86.2152 15.56C85.8952 15.5333 85.6818 15.52 85.5752 15.52C85.3352 15.52 85.0885 15.5867 84.8352 15.72L84.7952 15.16C84.6752 15.1867 84.5552 15.24 84.4352 15.32C84.3552 14.3733 84.2818 12.64 84.2152 10.12C84.1485 7.58667 84.1152 5.27333 84.1152 3.18C84.1152 2.04667 84.1218 1.26667 84.1352 0.84L84.4352 0.819999C84.6218 0.859999 84.8018 0.879999 84.9752 0.879999C85.1085 0.879999 85.3352 0.866666 85.6552 0.84C86.0285 0.813333 86.3218 0.799999 86.5352 0.799999C86.6952 0.799999 86.8285 0.833333 86.9352 0.899999C87.0418 0.953333 87.1152 1.06667 87.1552 1.24C87.2352 1.25333 87.3018 1.26667 87.3552 1.28C87.4218 1.29333 87.4752 1.30667 87.5152 1.32C87.5685 1.78667 87.6085 2.46667 87.6352 3.36C87.6885 4.62667 87.7752 5.58 87.8952 6.22H88.1152C88.5285 6.22 88.9018 6.19333 89.2352 6.14H89.3752C89.4552 5.18 89.4952 4.23333 89.4952 3.3C89.4952 2.26 89.4752 1.47333 89.4352 0.94C90.0752 0.753333 90.8418 0.66 91.7352 0.66H92.0152C92.2285 0.66 92.4152 0.673333 92.5752 0.699999V1.08C92.7352 1.08 92.8685 1.08667 92.9752 1.1L93.5152 15.46ZM92.3752 0.879999C92.2285 0.866666 92.0152 0.86 91.7352 0.86C90.8685 0.86 90.1685 0.939999 89.6352 1.1C89.6752 1.9 89.6952 2.64 89.6952 3.32C89.6952 4.29333 89.6485 5.29333 89.5552 6.32H89.5352C89.0685 6.38667 88.6085 6.42 88.1552 6.42C87.8352 6.42 87.5752 6.39333 87.3752 6.34H87.3552C87.2352 5.71333 87.1485 4.76667 87.0952 3.5C87.0685 2.56667 87.0152 1.76 86.9352 1.08C86.7618 1.02667 86.5218 0.999999 86.2152 0.999999L85.6752 1.02L85.0152 1.06L84.8352 1.08C84.6885 1.08 84.5418 1.06 84.3952 1.02L84.3352 1.04C84.3218 1.46667 84.3152 2.18 84.3152 3.18C84.3152 5.3 84.3418 7.56 84.3952 9.96C84.4618 12.36 84.5352 14.0333 84.6152 14.98C84.7085 14.9267 84.8552 14.9 85.0552 14.9C85.2152 14.9 85.4552 14.9133 85.7752 14.94C86.0552 14.98 86.3218 15 86.5752 15C86.7618 15 86.9085 14.9933 87.0152 14.98C87.1352 14.9667 87.2418 14.9267 87.3352 14.86C87.4018 14.3933 87.4352 13.82 87.4352 13.14C87.4352 12.62 87.4285 12.2267 87.4152 11.96L87.3952 10.8C87.3952 10.3733 87.4152 9.94 87.4552 9.5C87.8152 9.40667 88.2218 9.36 88.6752 9.36C88.9818 9.36 89.3485 9.39333 89.7752 9.46L89.7952 9.48C89.8618 10.0267 89.9085 10.8933 89.9352 12.08C89.9352 13.3067 89.9885 14.28 90.0952 15H90.1152C90.2218 14.9867 90.4152 14.98 90.6952 14.98H91.4152C92.0285 14.98 92.5285 14.9467 92.9152 14.88L92.3752 0.879999ZM98.1556 1.14H98.5556V1.42C98.5556 2.47333 98.549 3.4 98.5356 4.2C98.5223 5 98.509 5.66667 98.4956 6.2C98.4423 8.36 98.4156 10 98.4156 11.12C98.4156 12.5733 98.4556 13.9933 98.5356 15.38C98.3223 15.5933 97.8356 15.7 97.0756 15.7L96.1756 15.68C95.9756 15.6667 95.6956 15.66 95.3356 15.66C95.0423 15.66 94.7556 15.6933 94.4756 15.76L94.4956 15.28C94.269 15.3067 94.129 15.3333 94.0756 15.36C94.169 13.9867 94.2156 12.7333 94.2156 11.6C94.2156 10.84 94.209 10.1733 94.1956 9.6C94.1823 9.01333 94.169 8.53333 94.1556 8.16C94.1023 6.64 94.0756 5.48667 94.0756 4.7C94.0756 3.39333 94.1423 2.05333 94.2756 0.68C94.4623 0.653332 94.5823 0.639999 94.6356 0.639999C95.009 0.639999 95.3956 0.653332 95.7956 0.68C96.1023 0.719999 96.5023 0.739999 96.9956 0.739999H98.1556V1.14ZM97.0156 0.94C96.6956 0.94 96.1756 0.92 95.4556 0.879999C95.0556 0.853333 94.749 0.84 94.5356 0.84H94.4556V0.879999C94.3356 1.96 94.2756 3.22667 94.2756 4.68C94.2756 5.45333 94.2823 6.12667 94.2956 6.7C94.309 7.27333 94.3223 7.75333 94.3356 8.14C94.389 9.71333 94.4156 10.9067 94.4156 11.72C94.4156 12.84 94.3756 13.96 94.2956 15.08C94.4823 15.0533 94.6356 15.04 94.7556 15.04C94.9156 15.04 95.209 15.0533 95.6356 15.08C96.1156 15.1067 96.489 15.12 96.7556 15.12C97.3956 15.12 97.789 15.0467 97.9356 14.9C97.8556 13.46 97.8156 12.0067 97.8156 10.54C97.8156 9.44667 97.8423 7.84667 97.8956 5.74C97.909 5.20667 97.9223 4.54667 97.9356 3.76C97.949 2.97333 97.9556 2.06 97.9556 1.02V0.94H97.0156Z" fill="#273C75"/>
</svg>
